<svg id="writing" xmlns="http://www.w3.org/2000/svg" width="53.773" height="60" viewBox="0 0 53.773 60">
  <g id="Group_1076" data-name="Group 1076">
    <g id="Group_1075" data-name="Group 1075">
      <path id="Path_3437" data-name="Path 3437" d="M135.287,202.344A2.344,2.344,0,0,0,132.943,200H108.8a2.344,2.344,0,0,0,0,4.688h24.141A2.344,2.344,0,0,0,135.287,202.344Z" transform="translate(-97.097 -176.563)" fill="#fff"/>
      <path id="Path_3438" data-name="Path 3438" d="M108.8,280a2.344,2.344,0,0,0,0,4.688h14.661a2.344,2.344,0,0,0,0-4.687Z" transform="translate(-97.097 -247.188)" fill="#fff"/>
      <path id="Path_3439" data-name="Path 3439" d="M43.784,55.313H35.945a4.693,4.693,0,0,1-4.687-4.687V9.375a4.693,4.693,0,0,1,4.687-4.687H64.76a4.693,4.693,0,0,1,4.688,4.688V23.789a2.344,2.344,0,1,0,4.688,0V9.375A9.386,9.386,0,0,0,64.76,0H35.945A9.386,9.386,0,0,0,26.57,9.375v41.25A9.386,9.386,0,0,0,35.945,60h7.839a2.344,2.344,0,0,0,0-4.687Z" transform="translate(-26.57)" fill="#fff"/>
      <path id="Path_3440" data-name="Path 3440" d="M269.757,274.081a7.039,7.039,0,0,0-9.942,0l-12.868,12.839a2.344,2.344,0,0,0-.587.978l-2.8,9.226a2.343,2.343,0,0,0,2.868,2.94l9.46-2.62a2.343,2.343,0,0,0,1.03-.6l12.841-12.816A7.039,7.039,0,0,0,269.757,274.081Zm-15.716,19.007-4.759,1.318,1.393-4.585,8.682-8.663,3.315,3.315Zm12.4-12.379-.454.453-3.315-3.315.453-.452a2.344,2.344,0,0,1,3.316,3.313Z" transform="translate(-218.041 -240.146)" fill="#fff"/>
      <path id="Path_3441" data-name="Path 3441" d="M132.943,120H108.8a2.344,2.344,0,0,0,0,4.688h24.141a2.344,2.344,0,0,0,0-4.687Z" transform="translate(-97.097 -105.938)" fill="#fff"/>
    </g>
  </g>
</svg>
