<svg xmlns="http://www.w3.org/2000/svg" width="48.498" height="48.498" viewBox="0 0 48.498 48.498">
  <g id="Solid" transform="translate(-24 -24)">
    <path id="Path_3442" data-name="Path 3442" d="M151.686,61.729a2.509,2.509,0,0,0,3.548,0l9.46-9.46a2.509,2.509,0,0,0-3.548-3.548L155.968,53.9V26.509a2.509,2.509,0,0,0-5.017,0V53.9l-5.178-5.178a2.509,2.509,0,1,0-3.548,3.548Z" transform="translate(-105.21)" fill="#fff"/>
    <path id="Path_3443" data-name="Path 3443" d="M69.99,232a2.509,2.509,0,0,0-2.509,2.509v19.232H29.017V234.509a2.509,2.509,0,1,0-5.017,0v20.068a4.181,4.181,0,0,0,4.181,4.181H68.317a4.181,4.181,0,0,0,4.181-4.181V234.509A2.509,2.509,0,0,0,69.99,232Z" transform="translate(0 -186.259)" fill="#fff"/>
  </g>
</svg>
