<svg xmlns="http://www.w3.org/2000/svg" width="367.396" height="347.416" viewBox="0 0 367.396 347.416">
  <g id="Group_1082" data-name="Group 1082" transform="translate(-112.329 -1820.651)">
    <g id="Group_802" data-name="Group 802" transform="matrix(0.122, -0.993, 0.993, 0.122, 112.329, 2141.177)" opacity="0.25">
      <g id="Group_23" data-name="Group 23" transform="translate(0 210.679)">
        <path id="Path_54" data-name="Path 54" d="M9.967,4.98A4.983,4.983,0,1,1,4.981,0,4.986,4.986,0,0,1,9.967,4.98Z" fill="#fff"/>
        <path id="Path_55" data-name="Path 55" d="M9.967,4.98A4.983,4.983,0,1,1,4.981,0,4.983,4.983,0,0,1,9.967,4.98Z" transform="translate(31.887 0)" fill="#fff"/>
        <path id="Path_56" data-name="Path 56" d="M9.967,4.98A4.983,4.983,0,1,1,4.981,0,4.983,4.983,0,0,1,9.967,4.98Z" transform="translate(63.775 0)" fill="#fff"/>
        <path id="Path_57" data-name="Path 57" d="M9.967,4.98A4.983,4.983,0,1,1,4.986,0,4.981,4.981,0,0,1,9.967,4.98Z" transform="translate(95.662 0)" fill="#fff"/>
        <path id="Path_58" data-name="Path 58" d="M9.961,4.98A4.981,4.981,0,1,1,4.981,0,4.981,4.981,0,0,1,9.961,4.98Z" transform="translate(127.555 0)" fill="#fff"/>
        <path id="Path_59" data-name="Path 59" d="M9.961,4.98A4.981,4.981,0,1,1,4.981,0,4.981,4.981,0,0,1,9.961,4.98Z" transform="translate(159.442 0)" fill="#fff"/>
        <path id="Path_60" data-name="Path 60" d="M9.967,4.98A4.983,4.983,0,1,1,4.981,0,4.983,4.983,0,0,1,9.967,4.98Z" transform="translate(191.33 0)" fill="#fff"/>
        <path id="Path_61" data-name="Path 61" d="M9.967,4.98A4.983,4.983,0,1,1,4.981,0,4.983,4.983,0,0,1,9.967,4.98Z" transform="translate(223.217 0)" fill="#fff"/>
      </g>
      <g id="Group_24" data-name="Group 24" transform="translate(0 180.578)">
        <path id="Path_62" data-name="Path 62" d="M9.967,4.986A4.983,4.983,0,1,1,4.981,0,4.986,4.986,0,0,1,9.967,4.986Z" fill="#fff"/>
        <path id="Path_63" data-name="Path 63" d="M9.967,4.986A4.983,4.983,0,1,1,4.981,0,4.983,4.983,0,0,1,9.967,4.986Z" transform="translate(31.887 0)" fill="#fff"/>
        <path id="Path_64" data-name="Path 64" d="M9.967,4.986A4.983,4.983,0,1,1,4.981,0,4.983,4.983,0,0,1,9.967,4.986Z" transform="translate(63.775 0)" fill="#fff"/>
        <path id="Path_65" data-name="Path 65" d="M9.967,4.986A4.983,4.983,0,1,1,4.986,0,4.982,4.982,0,0,1,9.967,4.986Z" transform="translate(95.662 0)" fill="#fff"/>
        <path id="Path_66" data-name="Path 66" d="M9.961,4.986A4.981,4.981,0,1,1,4.981,0,4.982,4.982,0,0,1,9.961,4.986Z" transform="translate(127.555 0)" fill="#fff"/>
        <path id="Path_67" data-name="Path 67" d="M9.961,4.986A4.981,4.981,0,1,1,4.981,0,4.982,4.982,0,0,1,9.961,4.986Z" transform="translate(159.442 0)" fill="#fff"/>
        <path id="Path_68" data-name="Path 68" d="M9.967,4.986A4.983,4.983,0,1,1,4.981,0,4.983,4.983,0,0,1,9.967,4.986Z" transform="translate(191.33 0)" fill="#fff"/>
        <path id="Path_69" data-name="Path 69" d="M9.967,4.986A4.983,4.983,0,1,1,4.981,0,4.983,4.983,0,0,1,9.967,4.986Z" transform="translate(223.217 0)" fill="#fff"/>
      </g>
      <g id="Group_25" data-name="Group 25" transform="translate(0 150.482)">
        <path id="Path_70" data-name="Path 70" d="M9.967,4.986A4.983,4.983,0,1,1,4.981,0,4.986,4.986,0,0,1,9.967,4.986Z" transform="translate(0 0)" fill="#fff"/>
        <path id="Path_71" data-name="Path 71" d="M9.967,4.986A4.983,4.983,0,1,1,4.981,0,4.983,4.983,0,0,1,9.967,4.986Z" transform="translate(31.887 0)" fill="#fff"/>
        <path id="Path_72" data-name="Path 72" d="M9.967,4.986A4.983,4.983,0,1,1,4.981,0,4.983,4.983,0,0,1,9.967,4.986Z" transform="translate(63.775 0)" fill="#fff"/>
        <path id="Path_73" data-name="Path 73" d="M9.967,4.986A4.983,4.983,0,1,1,4.986,0,4.981,4.981,0,0,1,9.967,4.986Z" transform="translate(95.662 0)" fill="#fff"/>
        <path id="Path_74" data-name="Path 74" d="M9.961,4.986A4.981,4.981,0,1,1,4.981,0,4.981,4.981,0,0,1,9.961,4.986Z" transform="translate(127.555 0)" fill="#fff"/>
        <path id="Path_75" data-name="Path 75" d="M9.961,4.986A4.981,4.981,0,1,1,4.981,0,4.981,4.981,0,0,1,9.961,4.986Z" transform="translate(159.442 0)" fill="#fff"/>
        <path id="Path_76" data-name="Path 76" d="M9.967,4.986A4.983,4.983,0,1,1,4.981,0,4.983,4.983,0,0,1,9.967,4.986Z" transform="translate(191.33 0)" fill="#fff"/>
        <path id="Path_77" data-name="Path 77" d="M9.967,4.986A4.983,4.983,0,1,1,4.981,0,4.983,4.983,0,0,1,9.967,4.986Z" transform="translate(223.217 0)" fill="#fff"/>
      </g>
      <g id="Group_26" data-name="Group 26" transform="translate(0 120.387)">
        <path id="Path_78" data-name="Path 78" d="M9.967,4.981A4.983,4.983,0,1,1,4.981,0,4.987,4.987,0,0,1,9.967,4.981Z" fill="#fff"/>
        <path id="Path_79" data-name="Path 79" d="M9.967,4.981A4.983,4.983,0,1,1,4.981,0,4.984,4.984,0,0,1,9.967,4.981Z" transform="translate(31.887 0)" fill="#fff"/>
        <path id="Path_80" data-name="Path 80" d="M9.967,4.981A4.983,4.983,0,1,1,4.981,0,4.984,4.984,0,0,1,9.967,4.981Z" transform="translate(63.775 0)" fill="#fff"/>
        <path id="Path_81" data-name="Path 81" d="M9.967,4.981A4.983,4.983,0,1,1,4.986,0,4.983,4.983,0,0,1,9.967,4.981Z" transform="translate(95.662 0)" fill="#fff"/>
        <path id="Path_82" data-name="Path 82" d="M9.961,4.981A4.981,4.981,0,1,1,4.981,0,4.983,4.983,0,0,1,9.961,4.981Z" transform="translate(127.555 0)" fill="#fff"/>
        <path id="Path_83" data-name="Path 83" d="M9.961,4.981A4.981,4.981,0,1,1,4.981,0,4.983,4.983,0,0,1,9.961,4.981Z" transform="translate(159.442 0)" fill="#fff"/>
        <path id="Path_84" data-name="Path 84" d="M9.967,4.981A4.983,4.983,0,1,1,4.981,0,4.984,4.984,0,0,1,9.967,4.981Z" transform="translate(191.33 0)" fill="#fff"/>
        <path id="Path_85" data-name="Path 85" d="M9.967,4.981A4.983,4.983,0,1,1,4.981,0,4.984,4.984,0,0,1,9.967,4.981Z" transform="translate(223.217 0)" fill="#fff"/>
      </g>
      <g id="Group_27" data-name="Group 27" transform="translate(0 90.292)">
        <path id="Path_86" data-name="Path 86" d="M9.967,4.981A4.983,4.983,0,1,1,4.981,0,4.986,4.986,0,0,1,9.967,4.981Z" fill="#fff"/>
        <path id="Path_87" data-name="Path 87" d="M9.967,4.981A4.983,4.983,0,1,1,4.981,0,4.983,4.983,0,0,1,9.967,4.981Z" transform="translate(31.887 0)" fill="#fff"/>
        <path id="Path_88" data-name="Path 88" d="M9.967,4.981A4.983,4.983,0,1,1,4.981,0,4.983,4.983,0,0,1,9.967,4.981Z" transform="translate(63.775 0)" fill="#fff"/>
        <path id="Path_89" data-name="Path 89" d="M9.967,4.981A4.983,4.983,0,1,1,4.986,0,4.981,4.981,0,0,1,9.967,4.981Z" transform="translate(95.662 0)" fill="#fff"/>
        <path id="Path_90" data-name="Path 90" d="M9.961,4.981A4.981,4.981,0,1,1,4.981,0,4.981,4.981,0,0,1,9.961,4.981Z" transform="translate(127.555 0)" fill="#fff"/>
        <path id="Path_91" data-name="Path 91" d="M9.961,4.981A4.981,4.981,0,1,1,4.981,0,4.981,4.981,0,0,1,9.961,4.981Z" transform="translate(159.442 0)" fill="#fff"/>
        <path id="Path_92" data-name="Path 92" d="M9.967,4.981A4.983,4.983,0,1,1,4.981,0,4.982,4.982,0,0,1,9.967,4.981Z" transform="translate(191.33 0)" fill="#fff"/>
        <path id="Path_93" data-name="Path 93" d="M9.967,4.981A4.983,4.983,0,1,1,4.981,0,4.983,4.983,0,0,1,9.967,4.981Z" transform="translate(223.217 0)" fill="#fff"/>
      </g>
      <g id="Group_28" data-name="Group 28" transform="translate(0 60.196)">
        <path id="Path_94" data-name="Path 94" d="M9.967,4.981A4.983,4.983,0,1,1,4.981,0,4.986,4.986,0,0,1,9.967,4.981Z" fill="#fff"/>
        <path id="Path_95" data-name="Path 95" d="M9.967,4.981A4.983,4.983,0,1,1,4.981,0,4.983,4.983,0,0,1,9.967,4.981Z" transform="translate(31.887 0)" fill="#fff"/>
        <path id="Path_96" data-name="Path 96" d="M9.967,4.981A4.983,4.983,0,1,1,4.981,0,4.983,4.983,0,0,1,9.967,4.981Z" transform="translate(63.775 0)" fill="#fff"/>
        <path id="Path_97" data-name="Path 97" d="M9.967,4.981A4.983,4.983,0,1,1,4.986,0,4.982,4.982,0,0,1,9.967,4.981Z" transform="translate(95.662 0)" fill="#fff"/>
        <path id="Path_98" data-name="Path 98" d="M9.961,4.981A4.981,4.981,0,1,1,4.981,0,4.982,4.982,0,0,1,9.961,4.981Z" transform="translate(127.555 0)" fill="#fff"/>
        <path id="Path_99" data-name="Path 99" d="M9.961,4.981A4.981,4.981,0,1,1,4.981,0,4.982,4.982,0,0,1,9.961,4.981Z" transform="translate(159.442 0)" fill="#fff"/>
        <path id="Path_100" data-name="Path 100" d="M9.967,4.981A4.983,4.983,0,1,1,4.981,0,4.983,4.983,0,0,1,9.967,4.981Z" transform="translate(191.33 0)" fill="#fff"/>
        <path id="Path_101" data-name="Path 101" d="M9.967,4.981A4.983,4.983,0,1,1,4.981,0,4.983,4.983,0,0,1,9.967,4.981Z" transform="translate(223.217 0)" fill="#fff"/>
      </g>
      <g id="Group_29" data-name="Group 29" transform="translate(0 30.095)">
        <path id="Path_102" data-name="Path 102" d="M9.967,4.986A4.983,4.983,0,1,1,4.981,0,4.986,4.986,0,0,1,9.967,4.986Z" transform="translate(0 0)" fill="#fff"/>
        <path id="Path_103" data-name="Path 103" d="M9.967,4.986A4.983,4.983,0,1,1,4.981,0,4.983,4.983,0,0,1,9.967,4.986Z" transform="translate(31.887 0)" fill="#fff"/>
        <path id="Path_104" data-name="Path 104" d="M9.967,4.986A4.983,4.983,0,1,1,4.981,0,4.983,4.983,0,0,1,9.967,4.986Z" transform="translate(63.775 0)" fill="#fff"/>
        <path id="Path_105" data-name="Path 105" d="M9.967,4.986A4.983,4.983,0,1,1,4.986,0,4.981,4.981,0,0,1,9.967,4.986Z" transform="translate(95.662 0)" fill="#fff"/>
        <path id="Path_106" data-name="Path 106" d="M9.961,4.986A4.981,4.981,0,1,1,4.981,0,4.981,4.981,0,0,1,9.961,4.986Z" transform="translate(127.555 0)" fill="#fff"/>
        <path id="Path_107" data-name="Path 107" d="M9.961,4.986A4.981,4.981,0,1,1,4.981,0,4.981,4.981,0,0,1,9.961,4.986Z" transform="translate(159.442 0)" fill="#fff"/>
        <path id="Path_108" data-name="Path 108" d="M9.967,4.986A4.983,4.983,0,1,1,4.981,0,4.982,4.982,0,0,1,9.967,4.986Z" transform="translate(191.33 0)" fill="#fff"/>
        <path id="Path_109" data-name="Path 109" d="M9.967,4.986A4.983,4.983,0,1,1,4.981,0,4.983,4.983,0,0,1,9.967,4.986Z" transform="translate(223.217 0)" fill="#fff"/>
      </g>
      <g id="Group_30" data-name="Group 30">
        <path id="Path_110" data-name="Path 110" d="M9.967,4.981A4.983,4.983,0,1,1,4.981,0,4.987,4.987,0,0,1,9.967,4.981Z" fill="#fff"/>
        <path id="Path_111" data-name="Path 111" d="M9.967,4.981A4.983,4.983,0,1,1,4.981,0,4.984,4.984,0,0,1,9.967,4.981Z" transform="translate(31.887 0)" fill="#fff"/>
        <path id="Path_112" data-name="Path 112" d="M9.967,4.981A4.983,4.983,0,1,1,4.981,0,4.984,4.984,0,0,1,9.967,4.981Z" transform="translate(63.775 0)" fill="#fff"/>
        <path id="Path_113" data-name="Path 113" d="M9.967,4.981A4.983,4.983,0,1,1,4.986,0,4.983,4.983,0,0,1,9.967,4.981Z" transform="translate(95.662 0)" fill="#fff"/>
        <path id="Path_114" data-name="Path 114" d="M9.961,4.981A4.981,4.981,0,1,1,4.981,0,4.983,4.983,0,0,1,9.961,4.981Z" transform="translate(127.555 0)" fill="#fff"/>
        <path id="Path_115" data-name="Path 115" d="M9.961,4.981A4.981,4.981,0,1,1,4.981,0,4.983,4.983,0,0,1,9.961,4.981Z" transform="translate(159.442 0)" fill="#fff"/>
        <path id="Path_116" data-name="Path 116" d="M9.967,4.981A4.983,4.983,0,1,1,4.981,0,4.984,4.984,0,0,1,9.967,4.981Z" transform="translate(191.33 0)" fill="#fff"/>
        <path id="Path_117" data-name="Path 117" d="M9.967,4.981A4.983,4.983,0,1,1,4.981,0,4.984,4.984,0,0,1,9.967,4.981Z" transform="translate(223.217 0)" fill="#fff"/>
      </g>
    </g>
    <rect id="Rectangle_637" data-name="Rectangle 637" width="221.399" height="221.398" rx="1.633" transform="matrix(0.122, -0.993, 0.993, 0.122, 230.27, 2043.124)" fill="#fff" stroke="#08f" stroke-miterlimit="10" stroke-width="4.89" opacity="0.25"/>
  </g>
</svg>
