<svg id="carts" xmlns="http://www.w3.org/2000/svg" width="18" height="17.217" viewBox="0 0 18 17.217">
  <g id="Group_751" data-name="Group 751" transform="translate(4.696 13.304)">
    <circle id="Ellipse_8" data-name="Ellipse 8" cx="1.956" cy="1.956" r="1.956" transform="translate(7.826)" fill="#2c5981"/>
    <circle id="Ellipse_9" data-name="Ellipse 9" cx="1.956" cy="1.956" r="1.956" fill="#2c5981"/>
  </g>
  <path id="Path_809" data-name="Path 809" d="M100.1,74.8a.391.391,0,0,0-.293-.132H85.722a.391.391,0,0,0-.383.47L86.9,82.967a.424.424,0,0,0,.435.313l11.739-1.565a.391.391,0,0,0,.337-.34l.783-6.261A.391.391,0,0,0,100.1,74.8Z" transform="translate(-82.201 -72.323)" fill="#4382ba"/>
  <g id="Group_752" data-name="Group 752" transform="translate(5.48 3.904)">
    <path id="Path_810" data-name="Path 810" d="M150.557,123.121a.391.391,0,0,1-.386-.327l-.783-4.7a.391.391,0,0,1,.772-.128l.783,4.7a.391.391,0,0,1-.322.45A.375.375,0,0,1,150.557,123.121Z" transform="translate(-149.385 -117.634)" fill="#fafafa"/>
    <path id="Path_811" data-name="Path 811" d="M214.07,122.381a.391.391,0,0,1-.391-.356l-.391-4.3a.391.391,0,0,1,.353-.426h0a.391.391,0,0,1,.425.354h0l.391,4.3a.391.391,0,0,1-.354.425h0Z" transform="translate(-210.941 -117.286)" fill="#fafafa"/>
    <path id="Path_812" data-name="Path 812" d="M277.724,122.033a.391.391,0,0,1-.391-.391v-3.913a.391.391,0,0,1,.783,0v3.913A.391.391,0,0,1,277.724,122.033Z" transform="translate(-272.639 -117.328)" fill="#fafafa"/>
    <path id="Path_813" data-name="Path 813" d="M330.988,121.588h-.044a.391.391,0,0,1-.348-.43v0l.391-3.522a.4.4,0,0,1,.434-.348.391.391,0,0,1,.346.432h0l-.391,3.522A.391.391,0,0,1,330.988,121.588Z" transform="translate(-323.946 -117.274)" fill="#fafafa"/>
    <path id="Path_814" data-name="Path 814" d="M384.394,121.017a.391.391,0,0,1-.38-.486l.783-3.13a.391.391,0,0,1,.764.172l0,.018-.783,3.13A.391.391,0,0,1,384.394,121.017Z" transform="translate(-375.396 -117.096)" fill="#fafafa"/>
  </g>
  <path id="Path_815" data-name="Path 815" d="M16.043,23.192H7.011a2.747,2.747,0,0,1-2.686-2.2L2.418,11.453H.391a.391.391,0,0,1,0-.783H2.739a.391.391,0,0,1,.383.313l1.971,9.853a1.962,1.962,0,0,0,1.918,1.573h9.032a.391.391,0,1,1,0,.783Z" transform="translate(0 -10.67)" fill="#2c5981"/>
</svg>
