<svg xmlns="http://www.w3.org/2000/svg" width="61.172" height="53.526" viewBox="0 0 61.172 53.526">
  <path id="Icon_awesome-quote-left" data-name="Icon awesome-quote-left" d="M55.438,29.013H45.879V21.366a7.654,7.654,0,0,1,7.647-7.647h.956a2.861,2.861,0,0,0,2.867-2.867V5.117A2.861,2.861,0,0,0,54.482,2.25h-.956A19.111,19.111,0,0,0,34.409,21.366V50.041a5.736,5.736,0,0,0,5.735,5.735H55.438a5.736,5.736,0,0,0,5.735-5.735V34.748A5.736,5.736,0,0,0,55.438,29.013Zm-34.409,0H11.47V21.366a7.654,7.654,0,0,1,7.647-7.647h.956a2.861,2.861,0,0,0,2.867-2.867V5.117A2.861,2.861,0,0,0,20.072,2.25h-.956A19.111,19.111,0,0,0,0,21.366V50.041a5.736,5.736,0,0,0,5.735,5.735H21.028a5.736,5.736,0,0,0,5.735-5.735V34.748A5.736,5.736,0,0,0,21.028,29.013Z" transform="translate(0 -2.25)" fill="rgba(0,0,0,0.06)"/>
</svg>
