<svg xmlns="http://www.w3.org/2000/svg" width="180.369" height="205.636" viewBox="0 0 180.369 205.636">
  <g id="Group_33" data-name="Group 33" transform="translate(-1266.059 -477.787)" opacity="0.35">
    <g id="Group_32" data-name="Group 32" transform="matrix(0.208, 0.978, -0.978, 0.208, 1769.124, 342.061)">
      <g id="Group_31" data-name="Group 31" transform="translate(60.477 368.284)">
        <g id="Group_23" data-name="Group 23" transform="translate(0 108.489)">
          <path id="Path_54" data-name="Path 54" d="M65.609,409.764a2.566,2.566,0,1,1-2.568-2.565A2.568,2.568,0,0,1,65.609,409.764Z" transform="translate(-60.477 -407.199)" fill="#101011"/>
          <path id="Path_55" data-name="Path 55" d="M71.5,409.764a2.566,2.566,0,1,1-2.568-2.565A2.566,2.566,0,0,1,71.5,409.764Z" transform="translate(-49.947 -407.199)" fill="#101011"/>
          <path id="Path_56" data-name="Path 56" d="M77.389,409.764a2.566,2.566,0,1,1-2.568-2.565A2.566,2.566,0,0,1,77.389,409.764Z" transform="translate(-39.416 -407.199)" fill="#101011"/>
          <path id="Path_57" data-name="Path 57" d="M83.279,409.764a2.566,2.566,0,1,1-2.565-2.565A2.565,2.565,0,0,1,83.279,409.764Z" transform="translate(-28.886 -407.199)" fill="#101011"/>
          <path id="Path_58" data-name="Path 58" d="M89.168,409.764A2.565,2.565,0,1,1,86.6,407.2,2.565,2.565,0,0,1,89.168,409.764Z" transform="translate(-18.354 -407.199)" fill="#101011"/>
          <path id="Path_59" data-name="Path 59" d="M95.058,409.764a2.565,2.565,0,1,1-2.565-2.565A2.565,2.565,0,0,1,95.058,409.764Z" transform="translate(-7.823 -407.199)" fill="#101011"/>
          <path id="Path_60" data-name="Path 60" d="M100.95,409.764a2.566,2.566,0,1,1-2.568-2.565A2.566,2.566,0,0,1,100.95,409.764Z" transform="translate(2.707 -407.199)" fill="#101011"/>
          <path id="Path_61" data-name="Path 61" d="M106.84,409.764a2.566,2.566,0,1,1-2.568-2.565A2.566,2.566,0,0,1,106.84,409.764Z" transform="translate(13.237 -407.199)" fill="#101011"/>
        </g>
        <g id="Group_24" data-name="Group 24" transform="translate(0 92.988)">
          <path id="Path_62" data-name="Path 62" d="M65.609,404.207a2.566,2.566,0,1,1-2.568-2.568A2.568,2.568,0,0,1,65.609,404.207Z" transform="translate(-60.477 -401.639)" fill="#101011"/>
          <path id="Path_63" data-name="Path 63" d="M71.5,404.207a2.566,2.566,0,1,1-2.568-2.568A2.566,2.566,0,0,1,71.5,404.207Z" transform="translate(-49.947 -401.639)" fill="#101011"/>
          <path id="Path_64" data-name="Path 64" d="M77.389,404.207a2.566,2.566,0,1,1-2.568-2.568A2.566,2.566,0,0,1,77.389,404.207Z" transform="translate(-39.416 -401.639)" fill="#101011"/>
          <path id="Path_65" data-name="Path 65" d="M83.279,404.207a2.566,2.566,0,1,1-2.565-2.568A2.565,2.565,0,0,1,83.279,404.207Z" transform="translate(-28.886 -401.639)" fill="#101011"/>
          <path id="Path_66" data-name="Path 66" d="M89.168,404.207a2.565,2.565,0,1,1-2.565-2.568A2.565,2.565,0,0,1,89.168,404.207Z" transform="translate(-18.354 -401.639)" fill="#101011"/>
          <path id="Path_67" data-name="Path 67" d="M95.058,404.207a2.565,2.565,0,1,1-2.565-2.568A2.565,2.565,0,0,1,95.058,404.207Z" transform="translate(-7.823 -401.639)" fill="#101011"/>
          <path id="Path_68" data-name="Path 68" d="M100.95,404.207a2.566,2.566,0,1,1-2.568-2.568A2.566,2.566,0,0,1,100.95,404.207Z" transform="translate(2.707 -401.639)" fill="#101011"/>
          <path id="Path_69" data-name="Path 69" d="M106.84,404.207a2.566,2.566,0,1,1-2.568-2.568A2.566,2.566,0,0,1,106.84,404.207Z" transform="translate(13.237 -401.639)" fill="#101011"/>
        </g>
        <g id="Group_25" data-name="Group 25" transform="translate(0 77.491)">
          <path id="Path_70" data-name="Path 70" d="M65.609,398.648a2.566,2.566,0,1,1-2.568-2.568A2.568,2.568,0,0,1,65.609,398.648Z" transform="translate(-60.477 -396.08)" fill="#101011"/>
          <path id="Path_71" data-name="Path 71" d="M71.5,398.648a2.566,2.566,0,1,1-2.568-2.568A2.566,2.566,0,0,1,71.5,398.648Z" transform="translate(-49.947 -396.08)" fill="#101011"/>
          <path id="Path_72" data-name="Path 72" d="M77.389,398.648a2.566,2.566,0,1,1-2.568-2.568A2.566,2.566,0,0,1,77.389,398.648Z" transform="translate(-39.416 -396.08)" fill="#101011"/>
          <path id="Path_73" data-name="Path 73" d="M83.279,398.648a2.566,2.566,0,1,1-2.565-2.568A2.565,2.565,0,0,1,83.279,398.648Z" transform="translate(-28.886 -396.08)" fill="#101011"/>
          <path id="Path_74" data-name="Path 74" d="M89.168,398.648A2.565,2.565,0,1,1,86.6,396.08,2.565,2.565,0,0,1,89.168,398.648Z" transform="translate(-18.354 -396.08)" fill="#101011"/>
          <path id="Path_75" data-name="Path 75" d="M95.058,398.648a2.565,2.565,0,1,1-2.565-2.568A2.565,2.565,0,0,1,95.058,398.648Z" transform="translate(-7.823 -396.08)" fill="#101011"/>
          <path id="Path_76" data-name="Path 76" d="M100.95,398.648a2.566,2.566,0,1,1-2.568-2.568A2.566,2.566,0,0,1,100.95,398.648Z" transform="translate(2.707 -396.08)" fill="#101011"/>
          <path id="Path_77" data-name="Path 77" d="M106.84,398.648a2.566,2.566,0,1,1-2.568-2.568A2.566,2.566,0,0,1,106.84,398.648Z" transform="translate(13.237 -396.08)" fill="#101011"/>
        </g>
        <g id="Group_26" data-name="Group 26" transform="translate(0 61.993)">
          <path id="Path_78" data-name="Path 78" d="M65.609,393.086a2.566,2.566,0,1,1-2.568-2.565A2.568,2.568,0,0,1,65.609,393.086Z" transform="translate(-60.477 -390.521)" fill="#101011"/>
          <path id="Path_79" data-name="Path 79" d="M71.5,393.086a2.566,2.566,0,1,1-2.568-2.565A2.566,2.566,0,0,1,71.5,393.086Z" transform="translate(-49.947 -390.521)" fill="#101011"/>
          <path id="Path_80" data-name="Path 80" d="M77.389,393.086a2.566,2.566,0,1,1-2.568-2.565A2.566,2.566,0,0,1,77.389,393.086Z" transform="translate(-39.416 -390.521)" fill="#101011"/>
          <path id="Path_81" data-name="Path 81" d="M83.279,393.086a2.566,2.566,0,1,1-2.565-2.565A2.566,2.566,0,0,1,83.279,393.086Z" transform="translate(-28.886 -390.521)" fill="#101011"/>
          <path id="Path_82" data-name="Path 82" d="M89.168,393.086a2.565,2.565,0,1,1-2.565-2.565A2.566,2.566,0,0,1,89.168,393.086Z" transform="translate(-18.354 -390.521)" fill="#101011"/>
          <path id="Path_83" data-name="Path 83" d="M95.058,393.086a2.565,2.565,0,1,1-2.565-2.565A2.566,2.566,0,0,1,95.058,393.086Z" transform="translate(-7.823 -390.521)" fill="#101011"/>
          <path id="Path_84" data-name="Path 84" d="M100.95,393.086a2.566,2.566,0,1,1-2.568-2.565A2.566,2.566,0,0,1,100.95,393.086Z" transform="translate(2.707 -390.521)" fill="#101011"/>
          <path id="Path_85" data-name="Path 85" d="M106.84,393.086a2.566,2.566,0,1,1-2.568-2.565A2.566,2.566,0,0,1,106.84,393.086Z" transform="translate(13.237 -390.521)" fill="#101011"/>
        </g>
        <g id="Group_27" data-name="Group 27" transform="translate(0 46.496)">
          <path id="Path_86" data-name="Path 86" d="M65.609,387.527a2.566,2.566,0,1,1-2.568-2.565A2.568,2.568,0,0,1,65.609,387.527Z" transform="translate(-60.477 -384.962)" fill="#101011"/>
          <path id="Path_87" data-name="Path 87" d="M71.5,387.527a2.566,2.566,0,1,1-2.568-2.565A2.566,2.566,0,0,1,71.5,387.527Z" transform="translate(-49.947 -384.962)" fill="#101011"/>
          <path id="Path_88" data-name="Path 88" d="M77.389,387.527a2.566,2.566,0,1,1-2.568-2.565A2.566,2.566,0,0,1,77.389,387.527Z" transform="translate(-39.416 -384.962)" fill="#101011"/>
          <path id="Path_89" data-name="Path 89" d="M83.279,387.527a2.566,2.566,0,1,1-2.565-2.565A2.565,2.565,0,0,1,83.279,387.527Z" transform="translate(-28.886 -384.962)" fill="#101011"/>
          <path id="Path_90" data-name="Path 90" d="M89.168,387.527a2.565,2.565,0,1,1-2.565-2.565A2.565,2.565,0,0,1,89.168,387.527Z" transform="translate(-18.354 -384.962)" fill="#101011"/>
          <path id="Path_91" data-name="Path 91" d="M95.058,387.527a2.565,2.565,0,1,1-2.565-2.565A2.565,2.565,0,0,1,95.058,387.527Z" transform="translate(-7.823 -384.962)" fill="#101011"/>
          <path id="Path_92" data-name="Path 92" d="M100.95,387.527a2.566,2.566,0,1,1-2.568-2.565A2.566,2.566,0,0,1,100.95,387.527Z" transform="translate(2.707 -384.962)" fill="#101011"/>
          <path id="Path_93" data-name="Path 93" d="M106.84,387.527a2.566,2.566,0,1,1-2.568-2.565A2.566,2.566,0,0,1,106.84,387.527Z" transform="translate(13.237 -384.962)" fill="#101011"/>
        </g>
        <g id="Group_28" data-name="Group 28" transform="translate(0 30.998)">
          <path id="Path_94" data-name="Path 94" d="M65.609,381.968a2.566,2.566,0,1,1-2.568-2.565A2.568,2.568,0,0,1,65.609,381.968Z" transform="translate(-60.477 -379.403)" fill="#101011"/>
          <path id="Path_95" data-name="Path 95" d="M71.5,381.968a2.566,2.566,0,1,1-2.568-2.565A2.566,2.566,0,0,1,71.5,381.968Z" transform="translate(-49.947 -379.403)" fill="#101011"/>
          <path id="Path_96" data-name="Path 96" d="M77.389,381.968a2.566,2.566,0,1,1-2.568-2.565A2.566,2.566,0,0,1,77.389,381.968Z" transform="translate(-39.416 -379.403)" fill="#101011"/>
          <path id="Path_97" data-name="Path 97" d="M83.279,381.968a2.566,2.566,0,1,1-2.565-2.565A2.565,2.565,0,0,1,83.279,381.968Z" transform="translate(-28.886 -379.403)" fill="#101011"/>
          <path id="Path_98" data-name="Path 98" d="M89.168,381.968A2.565,2.565,0,1,1,86.6,379.4,2.565,2.565,0,0,1,89.168,381.968Z" transform="translate(-18.354 -379.403)" fill="#101011"/>
          <path id="Path_99" data-name="Path 99" d="M95.058,381.968a2.565,2.565,0,1,1-2.565-2.565A2.565,2.565,0,0,1,95.058,381.968Z" transform="translate(-7.823 -379.403)" fill="#101011"/>
          <path id="Path_100" data-name="Path 100" d="M100.95,381.968a2.566,2.566,0,1,1-2.568-2.565A2.566,2.566,0,0,1,100.95,381.968Z" transform="translate(2.707 -379.403)" fill="#101011"/>
          <path id="Path_101" data-name="Path 101" d="M106.84,381.968a2.566,2.566,0,1,1-2.568-2.565A2.566,2.566,0,0,1,106.84,381.968Z" transform="translate(13.237 -379.403)" fill="#101011"/>
        </g>
        <g id="Group_29" data-name="Group 29" transform="translate(0 15.498)">
          <path id="Path_102" data-name="Path 102" d="M65.609,376.411a2.566,2.566,0,1,1-2.568-2.568A2.568,2.568,0,0,1,65.609,376.411Z" transform="translate(-60.477 -373.843)" fill="#101011"/>
          <path id="Path_103" data-name="Path 103" d="M71.5,376.411a2.566,2.566,0,1,1-2.568-2.568A2.566,2.566,0,0,1,71.5,376.411Z" transform="translate(-49.947 -373.843)" fill="#101011"/>
          <path id="Path_104" data-name="Path 104" d="M77.389,376.411a2.566,2.566,0,1,1-2.568-2.568A2.566,2.566,0,0,1,77.389,376.411Z" transform="translate(-39.416 -373.843)" fill="#101011"/>
          <path id="Path_105" data-name="Path 105" d="M83.279,376.411a2.566,2.566,0,1,1-2.565-2.568A2.565,2.565,0,0,1,83.279,376.411Z" transform="translate(-28.886 -373.843)" fill="#101011"/>
          <path id="Path_106" data-name="Path 106" d="M89.168,376.411a2.565,2.565,0,1,1-2.565-2.568A2.565,2.565,0,0,1,89.168,376.411Z" transform="translate(-18.354 -373.843)" fill="#101011"/>
          <path id="Path_107" data-name="Path 107" d="M95.058,376.411a2.565,2.565,0,1,1-2.565-2.568A2.565,2.565,0,0,1,95.058,376.411Z" transform="translate(-7.823 -373.843)" fill="#101011"/>
          <path id="Path_108" data-name="Path 108" d="M100.95,376.411a2.566,2.566,0,1,1-2.568-2.568A2.566,2.566,0,0,1,100.95,376.411Z" transform="translate(2.707 -373.843)" fill="#101011"/>
          <path id="Path_109" data-name="Path 109" d="M106.84,376.411a2.566,2.566,0,1,1-2.568-2.568A2.566,2.566,0,0,1,106.84,376.411Z" transform="translate(13.237 -373.843)" fill="#101011"/>
        </g>
        <g id="Group_30" data-name="Group 30">
          <path id="Path_110" data-name="Path 110" d="M65.609,370.849a2.566,2.566,0,1,1-2.568-2.565A2.568,2.568,0,0,1,65.609,370.849Z" transform="translate(-60.477 -368.284)" fill="#101011"/>
          <path id="Path_111" data-name="Path 111" d="M71.5,370.849a2.566,2.566,0,1,1-2.568-2.565A2.566,2.566,0,0,1,71.5,370.849Z" transform="translate(-49.947 -368.284)" fill="#101011"/>
          <path id="Path_112" data-name="Path 112" d="M77.389,370.849a2.566,2.566,0,1,1-2.568-2.565A2.566,2.566,0,0,1,77.389,370.849Z" transform="translate(-39.416 -368.284)" fill="#101011"/>
          <path id="Path_113" data-name="Path 113" d="M83.279,370.849a2.566,2.566,0,1,1-2.565-2.565A2.566,2.566,0,0,1,83.279,370.849Z" transform="translate(-28.886 -368.284)" fill="#101011"/>
          <path id="Path_114" data-name="Path 114" d="M89.168,370.849a2.565,2.565,0,1,1-2.565-2.565A2.566,2.566,0,0,1,89.168,370.849Z" transform="translate(-18.354 -368.284)" fill="#101011"/>
          <path id="Path_115" data-name="Path 115" d="M95.058,370.849a2.565,2.565,0,1,1-2.565-2.565A2.566,2.566,0,0,1,95.058,370.849Z" transform="translate(-7.823 -368.284)" fill="#101011"/>
          <path id="Path_116" data-name="Path 116" d="M100.95,370.849a2.566,2.566,0,1,1-2.568-2.565A2.566,2.566,0,0,1,100.95,370.849Z" transform="translate(2.707 -368.284)" fill="#101011"/>
          <path id="Path_117" data-name="Path 117" d="M106.84,370.849a2.566,2.566,0,1,1-2.568-2.565A2.566,2.566,0,0,1,106.84,370.849Z" transform="translate(13.237 -368.284)" fill="#101011"/>
        </g>
      </g>
      <rect id="Rectangle_9" data-name="Rectangle 9" width="114.009" height="114.009" rx="1.633" transform="translate(117.995 422.411)" fill="none" stroke="#08f" stroke-miterlimit="10" stroke-width="4.89"/>
    </g>
  </g>
</svg>
