<svg xmlns="http://www.w3.org/2000/svg" width="294.618" height="251.627" viewBox="0 0 294.618 251.627">
  <g id="Group_34" data-name="Group 34" transform="translate(-750.108 -1106.798) rotate(30)" opacity="0.35">
    <g id="Group_32" data-name="Group 32" transform="matrix(0.208, 0.978, -0.978, 0.208, 1482.195, 477.787)">
      <g id="Group_31" data-name="Group 31">
        <g id="Group_23" data-name="Group 23" transform="translate(0 148.552)">
          <path id="Path_54" data-name="Path 54" d="M7.028,3.512A3.514,3.514,0,1,1,3.512,0,3.516,3.516,0,0,1,7.028,3.512Z" fill="#101011"/>
          <path id="Path_55" data-name="Path 55" d="M7.028,3.512A3.514,3.514,0,1,1,3.512,0,3.513,3.513,0,0,1,7.028,3.512Z" transform="translate(22.484)" fill="#101011"/>
          <path id="Path_56" data-name="Path 56" d="M7.028,3.512A3.514,3.514,0,1,1,3.512,0,3.513,3.513,0,0,1,7.028,3.512Z" transform="translate(44.968)" fill="#101011"/>
          <path id="Path_57" data-name="Path 57" d="M7.028,3.512A3.514,3.514,0,1,1,3.516,0,3.513,3.513,0,0,1,7.028,3.512Z" transform="translate(67.452)" fill="#101011"/>
          <path id="Path_58" data-name="Path 58" d="M7.024,3.512A3.512,3.512,0,1,1,3.512,0,3.512,3.512,0,0,1,7.024,3.512Z" transform="translate(89.94)" fill="#101011"/>
          <path id="Path_59" data-name="Path 59" d="M7.024,3.512A3.512,3.512,0,1,1,3.512,0,3.512,3.512,0,0,1,7.024,3.512Z" transform="translate(112.425)" fill="#101011"/>
          <path id="Path_60" data-name="Path 60" d="M7.028,3.512A3.514,3.514,0,1,1,3.512,0,3.513,3.513,0,0,1,7.028,3.512Z" transform="translate(134.909)" fill="#101011"/>
          <path id="Path_61" data-name="Path 61" d="M7.028,3.512A3.514,3.514,0,1,1,3.512,0,3.513,3.513,0,0,1,7.028,3.512Z" transform="translate(157.393)" fill="#101011"/>
        </g>
        <g id="Group_24" data-name="Group 24" transform="translate(0 127.328)">
          <path id="Path_62" data-name="Path 62" d="M7.028,3.516A3.514,3.514,0,1,1,3.512,0,3.516,3.516,0,0,1,7.028,3.516Z" fill="#101011"/>
          <path id="Path_63" data-name="Path 63" d="M7.028,3.516A3.514,3.514,0,1,1,3.512,0,3.513,3.513,0,0,1,7.028,3.516Z" transform="translate(22.484)" fill="#101011"/>
          <path id="Path_64" data-name="Path 64" d="M7.028,3.516A3.514,3.514,0,1,1,3.512,0,3.513,3.513,0,0,1,7.028,3.516Z" transform="translate(44.968)" fill="#101011"/>
          <path id="Path_65" data-name="Path 65" d="M7.028,3.516A3.514,3.514,0,1,1,3.516,0,3.513,3.513,0,0,1,7.028,3.516Z" transform="translate(67.452)" fill="#101011"/>
          <path id="Path_66" data-name="Path 66" d="M7.024,3.516A3.512,3.512,0,1,1,3.512,0,3.513,3.513,0,0,1,7.024,3.516Z" transform="translate(89.94)" fill="#101011"/>
          <path id="Path_67" data-name="Path 67" d="M7.024,3.516A3.512,3.512,0,1,1,3.512,0,3.513,3.513,0,0,1,7.024,3.516Z" transform="translate(112.425)" fill="#101011"/>
          <path id="Path_68" data-name="Path 68" d="M7.028,3.516A3.514,3.514,0,1,1,3.512,0,3.513,3.513,0,0,1,7.028,3.516Z" transform="translate(134.909)" fill="#101011"/>
          <path id="Path_69" data-name="Path 69" d="M7.028,3.516A3.514,3.514,0,1,1,3.512,0,3.513,3.513,0,0,1,7.028,3.516Z" transform="translate(157.393)" fill="#101011"/>
        </g>
        <g id="Group_25" data-name="Group 25" transform="translate(0 106.107)">
          <path id="Path_70" data-name="Path 70" d="M7.028,3.516A3.514,3.514,0,1,1,3.512,0,3.516,3.516,0,0,1,7.028,3.516Z" fill="#101011"/>
          <path id="Path_71" data-name="Path 71" d="M7.028,3.516A3.514,3.514,0,1,1,3.512,0,3.513,3.513,0,0,1,7.028,3.516Z" transform="translate(22.484)" fill="#101011"/>
          <path id="Path_72" data-name="Path 72" d="M7.028,3.516A3.514,3.514,0,1,1,3.512,0,3.513,3.513,0,0,1,7.028,3.516Z" transform="translate(44.968)" fill="#101011"/>
          <path id="Path_73" data-name="Path 73" d="M7.028,3.516A3.514,3.514,0,1,1,3.516,0,3.512,3.512,0,0,1,7.028,3.516Z" transform="translate(67.452)" fill="#101011"/>
          <path id="Path_74" data-name="Path 74" d="M7.024,3.516A3.512,3.512,0,1,1,3.512,0,3.512,3.512,0,0,1,7.024,3.516Z" transform="translate(89.94)" fill="#101011"/>
          <path id="Path_75" data-name="Path 75" d="M7.024,3.516A3.512,3.512,0,1,1,3.512,0,3.512,3.512,0,0,1,7.024,3.516Z" transform="translate(112.425)" fill="#101011"/>
          <path id="Path_76" data-name="Path 76" d="M7.028,3.516A3.514,3.514,0,1,1,3.512,0,3.513,3.513,0,0,1,7.028,3.516Z" transform="translate(134.909)" fill="#101011"/>
          <path id="Path_77" data-name="Path 77" d="M7.028,3.516A3.514,3.514,0,1,1,3.512,0,3.513,3.513,0,0,1,7.028,3.516Z" transform="translate(157.393)" fill="#101011"/>
        </g>
        <g id="Group_26" data-name="Group 26" transform="translate(0 84.886)">
          <path id="Path_78" data-name="Path 78" d="M7.028,3.512A3.514,3.514,0,1,1,3.512,0,3.517,3.517,0,0,1,7.028,3.512Z" fill="#101011"/>
          <path id="Path_79" data-name="Path 79" d="M7.028,3.512A3.514,3.514,0,1,1,3.512,0,3.514,3.514,0,0,1,7.028,3.512Z" transform="translate(22.484)" fill="#101011"/>
          <path id="Path_80" data-name="Path 80" d="M7.028,3.512A3.514,3.514,0,1,1,3.512,0,3.514,3.514,0,0,1,7.028,3.512Z" transform="translate(44.968)" fill="#101011"/>
          <path id="Path_81" data-name="Path 81" d="M7.028,3.512A3.514,3.514,0,1,1,3.516,0,3.513,3.513,0,0,1,7.028,3.512Z" transform="translate(67.452)" fill="#101011"/>
          <path id="Path_82" data-name="Path 82" d="M7.024,3.512A3.512,3.512,0,1,1,3.512,0,3.513,3.513,0,0,1,7.024,3.512Z" transform="translate(89.94)" fill="#101011"/>
          <path id="Path_83" data-name="Path 83" d="M7.024,3.512A3.512,3.512,0,1,1,3.512,0,3.513,3.513,0,0,1,7.024,3.512Z" transform="translate(112.425)" fill="#101011"/>
          <path id="Path_84" data-name="Path 84" d="M7.028,3.512A3.514,3.514,0,1,1,3.512,0,3.514,3.514,0,0,1,7.028,3.512Z" transform="translate(134.909)" fill="#101011"/>
          <path id="Path_85" data-name="Path 85" d="M7.028,3.512A3.514,3.514,0,1,1,3.512,0,3.514,3.514,0,0,1,7.028,3.512Z" transform="translate(157.393)" fill="#101011"/>
        </g>
        <g id="Group_27" data-name="Group 27" transform="translate(0 63.666)">
          <path id="Path_86" data-name="Path 86" d="M7.028,3.512A3.514,3.514,0,1,1,3.512,0,3.516,3.516,0,0,1,7.028,3.512Z" fill="#101011"/>
          <path id="Path_87" data-name="Path 87" d="M7.028,3.512A3.514,3.514,0,1,1,3.512,0,3.513,3.513,0,0,1,7.028,3.512Z" transform="translate(22.484)" fill="#101011"/>
          <path id="Path_88" data-name="Path 88" d="M7.028,3.512A3.514,3.514,0,1,1,3.512,0,3.513,3.513,0,0,1,7.028,3.512Z" transform="translate(44.968)" fill="#101011"/>
          <path id="Path_89" data-name="Path 89" d="M7.028,3.512A3.514,3.514,0,1,1,3.516,0,3.512,3.512,0,0,1,7.028,3.512Z" transform="translate(67.452)" fill="#101011"/>
          <path id="Path_90" data-name="Path 90" d="M7.024,3.512A3.512,3.512,0,1,1,3.512,0,3.512,3.512,0,0,1,7.024,3.512Z" transform="translate(89.94)" fill="#101011"/>
          <path id="Path_91" data-name="Path 91" d="M7.024,3.512A3.512,3.512,0,1,1,3.512,0,3.512,3.512,0,0,1,7.024,3.512Z" transform="translate(112.425)" fill="#101011"/>
          <path id="Path_92" data-name="Path 92" d="M7.028,3.512A3.514,3.514,0,1,1,3.512,0,3.513,3.513,0,0,1,7.028,3.512Z" transform="translate(134.909)" fill="#101011"/>
          <path id="Path_93" data-name="Path 93" d="M7.028,3.512A3.514,3.514,0,1,1,3.512,0,3.513,3.513,0,0,1,7.028,3.512Z" transform="translate(157.393)" fill="#101011"/>
        </g>
        <g id="Group_28" data-name="Group 28" transform="translate(0 42.445)">
          <path id="Path_94" data-name="Path 94" d="M7.028,3.512A3.514,3.514,0,1,1,3.512,0,3.516,3.516,0,0,1,7.028,3.512Z" fill="#101011"/>
          <path id="Path_95" data-name="Path 95" d="M7.028,3.512A3.514,3.514,0,1,1,3.512,0,3.513,3.513,0,0,1,7.028,3.512Z" transform="translate(22.484)" fill="#101011"/>
          <path id="Path_96" data-name="Path 96" d="M7.028,3.512A3.514,3.514,0,1,1,3.512,0,3.513,3.513,0,0,1,7.028,3.512Z" transform="translate(44.968)" fill="#101011"/>
          <path id="Path_97" data-name="Path 97" d="M7.028,3.512A3.514,3.514,0,1,1,3.516,0,3.513,3.513,0,0,1,7.028,3.512Z" transform="translate(67.452)" fill="#101011"/>
          <path id="Path_98" data-name="Path 98" d="M7.024,3.512A3.512,3.512,0,1,1,3.512,0,3.513,3.513,0,0,1,7.024,3.512Z" transform="translate(89.94)" fill="#101011"/>
          <path id="Path_99" data-name="Path 99" d="M7.024,3.512A3.512,3.512,0,1,1,3.512,0,3.513,3.513,0,0,1,7.024,3.512Z" transform="translate(112.425)" fill="#101011"/>
          <path id="Path_100" data-name="Path 100" d="M7.028,3.512A3.514,3.514,0,1,1,3.512,0,3.513,3.513,0,0,1,7.028,3.512Z" transform="translate(134.909)" fill="#101011"/>
          <path id="Path_101" data-name="Path 101" d="M7.028,3.512A3.514,3.514,0,1,1,3.512,0,3.513,3.513,0,0,1,7.028,3.512Z" transform="translate(157.393)" fill="#101011"/>
        </g>
        <g id="Group_29" data-name="Group 29" transform="translate(0 21.221)">
          <path id="Path_102" data-name="Path 102" d="M7.028,3.516A3.514,3.514,0,1,1,3.512,0,3.516,3.516,0,0,1,7.028,3.516Z" fill="#101011"/>
          <path id="Path_103" data-name="Path 103" d="M7.028,3.516A3.514,3.514,0,1,1,3.512,0,3.513,3.513,0,0,1,7.028,3.516Z" transform="translate(22.484)" fill="#101011"/>
          <path id="Path_104" data-name="Path 104" d="M7.028,3.516A3.514,3.514,0,1,1,3.512,0,3.513,3.513,0,0,1,7.028,3.516Z" transform="translate(44.968)" fill="#101011"/>
          <path id="Path_105" data-name="Path 105" d="M7.028,3.516A3.514,3.514,0,1,1,3.516,0,3.512,3.512,0,0,1,7.028,3.516Z" transform="translate(67.452)" fill="#101011"/>
          <path id="Path_106" data-name="Path 106" d="M7.024,3.516A3.512,3.512,0,1,1,3.512,0,3.512,3.512,0,0,1,7.024,3.516Z" transform="translate(89.94)" fill="#101011"/>
          <path id="Path_107" data-name="Path 107" d="M7.024,3.516A3.512,3.512,0,1,1,3.512,0,3.512,3.512,0,0,1,7.024,3.516Z" transform="translate(112.425)" fill="#101011"/>
          <path id="Path_108" data-name="Path 108" d="M7.028,3.516A3.514,3.514,0,1,1,3.512,0,3.513,3.513,0,0,1,7.028,3.516Z" transform="translate(134.909)" fill="#101011"/>
          <path id="Path_109" data-name="Path 109" d="M7.028,3.516A3.514,3.514,0,1,1,3.512,0,3.513,3.513,0,0,1,7.028,3.516Z" transform="translate(157.393)" fill="#101011"/>
        </g>
        <g id="Group_30" data-name="Group 30">
          <path id="Path_110" data-name="Path 110" d="M7.028,3.512A3.514,3.514,0,1,1,3.512,0,3.517,3.517,0,0,1,7.028,3.512Z" fill="#101011"/>
          <path id="Path_111" data-name="Path 111" d="M7.028,3.512A3.514,3.514,0,1,1,3.512,0,3.514,3.514,0,0,1,7.028,3.512Z" transform="translate(22.484)" fill="#101011"/>
          <path id="Path_112" data-name="Path 112" d="M7.028,3.512A3.514,3.514,0,1,1,3.512,0,3.514,3.514,0,0,1,7.028,3.512Z" transform="translate(44.968)" fill="#101011"/>
          <path id="Path_113" data-name="Path 113" d="M7.028,3.512A3.514,3.514,0,1,1,3.516,0,3.513,3.513,0,0,1,7.028,3.512Z" transform="translate(67.452)" fill="#101011"/>
          <path id="Path_114" data-name="Path 114" d="M7.024,3.512A3.512,3.512,0,1,1,3.512,0,3.513,3.513,0,0,1,7.024,3.512Z" transform="translate(89.94)" fill="#101011"/>
          <path id="Path_115" data-name="Path 115" d="M7.024,3.512A3.512,3.512,0,1,1,3.512,0,3.513,3.513,0,0,1,7.024,3.512Z" transform="translate(112.425)" fill="#101011"/>
          <path id="Path_116" data-name="Path 116" d="M7.028,3.512A3.514,3.514,0,1,1,3.512,0,3.514,3.514,0,0,1,7.028,3.512Z" transform="translate(134.909)" fill="#101011"/>
          <path id="Path_117" data-name="Path 117" d="M7.028,3.512A3.514,3.514,0,1,1,3.512,0,3.514,3.514,0,0,1,7.028,3.512Z" transform="translate(157.393)" fill="#101011"/>
        </g>
      </g>
      <rect id="Rectangle_9" data-name="Rectangle 9" width="156.111" height="156.111" rx="1.633" transform="translate(78.758 74.116)" fill="none" stroke="#08f" stroke-miterlimit="10" stroke-width="4.89"/>
    </g>
  </g>
</svg>
