<svg xmlns="http://www.w3.org/2000/svg" width="38.362" height="38.362" viewBox="0 0 38.362 38.362">
  <path id="Icon_awesome-bullseye" data-name="Icon awesome-bullseye" d="M19.181.563A19.181,19.181,0,1,0,38.362,19.744,19.181,19.181,0,0,0,19.181.563Zm0,33.412A14.231,14.231,0,1,1,33.412,19.744,14.223,14.223,0,0,1,19.181,33.975Zm0-24.131a9.9,9.9,0,1,0,9.9,9.9A9.9,9.9,0,0,0,19.181,9.844Zm0,14.85a4.95,4.95,0,1,1,4.95-4.95A4.956,4.956,0,0,1,19.181,24.693Z" transform="translate(0 -0.563)" fill="#4382ba"/>
</svg>
