<svg xmlns="http://www.w3.org/2000/svg" width="29.853" height="34.118" viewBox="0 0 29.853 34.118">
  <path id="Icon_awesome-book-medical" data-name="Icon awesome-book-medical" d="M29.853,23.883V1.706A1.569,1.569,0,0,0,28.147,0H6.4A6.283,6.283,0,0,0,0,6.4V27.721a6.283,6.283,0,0,0,6.4,6.4h21.75a1.682,1.682,0,0,0,1.706-1.706V31.346a1.843,1.843,0,0,0-.64-1.279,18.861,18.861,0,0,1,0-4.9,1.289,1.289,0,0,0,.64-1.279ZM9.6,11.2a.533.533,0,0,1,.533-.533h3.732V6.93a.533.533,0,0,1,.533-.533h3.2a.533.533,0,0,1,.533.533v3.732h3.732a.533.533,0,0,1,.533.533v3.2a.533.533,0,0,1-.533.533H18.125v3.732a.533.533,0,0,1-.533.533h-3.2a.533.533,0,0,1-.533-.533V14.927H10.129a.533.533,0,0,1-.533-.533Zm15.78,18.658H6.4a2.015,2.015,0,0,1-2.132-2.132A2.137,2.137,0,0,1,6.4,25.589H25.375Z" fill="#4382ba"/>
</svg>
