<svg id="Icon_ionic-ios-apps" data-name="Icon ionic-ios-apps" xmlns="http://www.w3.org/2000/svg" width="35.019" height="35.013" viewBox="0 0 35.019 35.013">
  <path id="Path_1" data-name="Path 1" d="M38.307,11.211,24.686,5a7.377,7.377,0,0,0-5.37,0L5.7,11.211c-1.6.729-1.6,1.924,0,2.653L19.2,20.019a7.752,7.752,0,0,0,5.616,0l13.494-6.154C39.912,13.135,39.912,11.941,38.307,11.211Z" transform="translate(-4.491 -4.496)" fill="#4382ba"/>
  <g id="Group_9" data-name="Group 9" transform="translate(0 14.754)">
    <path id="Path_2" data-name="Path 2" d="M19.2,27.36l-9.1-4.148a1.48,1.48,0,0,0-1.213,0L5.7,24.661c-1.6.729-1.6,1.924,0,2.653L19.2,33.469a7.752,7.752,0,0,0,5.616,0l13.494-6.154c1.6-.729,1.6-1.924,0-2.653l-3.182-1.45a1.48,1.48,0,0,0-1.213,0l-9.1,4.148A7.752,7.752,0,0,1,19.2,27.36Z" transform="translate(-4.491 -13.737)" fill="#4382ba"/>
    <path id="Path_3" data-name="Path 3" d="M38.309,17.318,35.419,16a1.458,1.458,0,0,0-1.2,0l-9.847,4.458a8.049,8.049,0,0,1-4.732,0L9.79,16a1.458,1.458,0,0,0-1.2,0L5.7,17.318c-1.6.729-1.6,1.924,0,2.653L19.19,26.125a7.752,7.752,0,0,0,5.616,0L38.3,19.971C39.914,19.241,39.914,18.047,38.309,17.318Z" transform="translate(-4.493 -15.875)" fill="#4382ba"/>
  </g>
</svg>
