<svg xmlns="http://www.w3.org/2000/svg" width="35.563" height="39.218" viewBox="0 0 35.563 39.218">
  <path id="Icon_simple-email" data-name="Icon simple-email" d="M37.209,18.1a20.225,20.225,0,0,1-.652,4.387,12.694,12.694,0,0,1-1.706,3.852,9,9,0,0,1-2.892,2.737,8.161,8.161,0,0,1-4.222,1.042,6.121,6.121,0,0,1-3.054-.747,5.229,5.229,0,0,1-2.063-2.115,6.54,6.54,0,0,1-5.534,2.779,5.627,5.627,0,0,1-4.83-2.6,8.5,8.5,0,0,1-1.2-3.009A12.979,12.979,0,0,1,10.9,20.5a18.237,18.237,0,0,1,1.2-4.808,13.069,13.069,0,0,1,2.211-3.683,9.351,9.351,0,0,1,3.039-2.348,8.479,8.479,0,0,1,3.7-.821,11.491,11.491,0,0,1,2.211.189,9.048,9.048,0,0,1,1.715.515,9.276,9.276,0,0,1,1.421.75c.434.279.87.569,1.3.863L26.617,23.509a4.105,4.105,0,0,0,.032,1.446,2.023,2.023,0,0,0,.441.892,1.588,1.588,0,0,0,.716.466,2.657,2.657,0,0,0,2.514-.5A5.359,5.359,0,0,0,31.668,24.1a11.048,11.048,0,0,0,.907-2.578,17.689,17.689,0,0,0,.4-3.21,20.517,20.517,0,0,0-.5-6,11.925,11.925,0,0,0-2.22-4.642,10.31,10.31,0,0,0-3.98-2.99,14.445,14.445,0,0,0-5.8-1.061,12.8,12.8,0,0,0-5.735,1.25,13.158,13.158,0,0,0-4.357,3.465A16.63,16.63,0,0,0,7.524,13.55a23.49,23.49,0,0,0-1.2,6.494,21.6,21.6,0,0,0,.613,6.627A11.968,11.968,0,0,0,9.357,31.42a10.1,10.1,0,0,0,4.1,2.853,15.736,15.736,0,0,0,5.661.946,19.39,19.39,0,0,0,3.715-.4c.613-.123,1.193-.27,1.747-.431a13.151,13.151,0,0,0,1.5-.539l.777,3.495a8.624,8.624,0,0,1-1.684.833,16.207,16.207,0,0,1-1.99.576,19.417,19.417,0,0,1-4.156.466A21.8,21.8,0,0,1,11.457,38a13.946,13.946,0,0,1-5.524-3.632,15.253,15.253,0,0,1-3.316-6,25.58,25.58,0,0,1-.926-8.325,25.389,25.389,0,0,1,1.593-7.989A19.772,19.772,0,0,1,7.122,5.708a17.488,17.488,0,0,1,5.855-4.188A18.33,18.33,0,0,1,20.559,0a19.137,19.137,0,0,1,7.347,1.316,14.29,14.29,0,0,1,5.3,3.7,15.187,15.187,0,0,1,3.147,5.717A21.862,21.862,0,0,1,37.209,18.1ZM16.163,20.5a8.337,8.337,0,0,0,.431,4.134,2.217,2.217,0,0,0,2.132,1.4,2.355,2.355,0,0,0,.73-.135,2.6,2.6,0,0,0,.841-.5,4.486,4.486,0,0,0,.853-1.029,7.9,7.9,0,0,0,.784-1.74l.838-9.6a5.007,5.007,0,0,0-1.3-.172,4.508,4.508,0,0,0-2.169.5,4.294,4.294,0,0,0-1.537,1.461,8.577,8.577,0,0,0-1.019,2.4,20.373,20.373,0,0,0-.578,3.284Z" transform="translate(-1.67)" fill="#4382ba"/>
</svg>
