<svg xmlns="http://www.w3.org/2000/svg" width="991" height="446.163" viewBox="0 0 991 446.163">
  <g id="Group_760" data-name="Group 760" transform="translate(-313 -2251.792)">
    <g id="Group_759" data-name="Group 759" transform="translate(-47.311 -161.479)">
      <g id="computer" transform="translate(639.562 2550.303)">
        <path id="Path_818" data-name="Path 818" d="M17.467,61.312a2.976,2.976,0,0,1-2.885-3.69l2.971-11.873a2.971,2.971,0,0,1,5.764,1.438L20.347,59.06A2.963,2.963,0,0,1,17.467,61.312Z" transform="translate(27.079 48.568)" fill="#ccd1d9"/>
        <path id="Path_819" data-name="Path 819" d="M31.424,61.312a2.974,2.974,0,0,1-2.879-2.252L25.579,47.187a2.971,2.971,0,1,1,5.764-1.438l2.965,11.873a2.966,2.966,0,0,1-2.16,3.6A3.063,3.063,0,0,1,31.424,61.312Z" transform="translate(48.755 48.568)" fill="#ccd1d9"/>
        <path id="Path_820" data-name="Path 820" d="M45.488,20.5v86.139a5.96,5.96,0,0,0,5.943,5.943H93.059A5.979,5.979,0,0,0,99,106.639V20.5Z" transform="translate(88.181 3.241)" fill="#545c66"/>
        <path id="Path_821" data-name="Path 821" d="M58.441,28.5A5.943,5.943,0,1,1,52.5,34.443,5.96,5.96,0,0,1,58.441,28.5Z" transform="translate(102 19.012)" fill="#5d9cec"/>
        <path id="Path_822" data-name="Path 822" d="M99,19.453v5.913H45.488V19.453a5.96,5.96,0,0,1,5.943-5.943H93.059A5.979,5.979,0,0,1,99,19.453Z" transform="translate(88.181 -10.539)" fill="#545c66"/>
        <path id="Path_823" data-name="Path 823" d="M45.488,17.5H99v8.914H45.488Z" transform="translate(88.181 -2.673)" fill="#656d78"/>
        <path id="Path_824" data-name="Path 824" d="M23.373,48.49h41.6a5.941,5.941,0,0,1,5.943,5.943V57.4H11.488V54.433a5.941,5.941,0,0,1,5.943-5.943Z" transform="translate(21.155 58.419)" fill="#e6e9ed"/>
        <path id="Path_825" data-name="Path 825" d="M48.173,44.49l2.971,11.885H15.488L18.459,44.49Z" transform="translate(29.04 50.533)" fill="#ccd1d9"/>
        <path id="Path_826" data-name="Path 826" d="M1.65,40.49H120.3v5.943a5.96,5.96,0,0,1-5.943,5.943H7.441A5.96,5.96,0,0,1,1.5,46.433V40.49Z" transform="translate(1.461 42.648)" fill="#e6e9ed"/>
        <path id="Path_827" data-name="Path 827" d="M120.3,19.453V93.677H1.5V19.453A5.96,5.96,0,0,1,7.441,13.51H114.349a5.963,5.963,0,0,1,5.946,5.943Z" transform="translate(1.461 -10.539)" fill="#5d9cec"/>
        <path id="Path_828" data-name="Path 828" d="M42.746,93.677H27.889L15.992,13.51H30.849Z" transform="translate(30.034 -10.539)" fill="#87bcf4"/>
        <path id="Path_829" data-name="Path 829" d="M36.855,93.677H33.9L22,13.51h2.959Z" transform="translate(41.874 -10.539)" fill="#87bcf4"/>
        <path id="Path_830" data-name="Path 830" d="M116.319,110.517H9.416A8.925,8.925,0,0,1,.5,101.6V21.424A8.925,8.925,0,0,1,9.416,12.51h106.9a8.925,8.925,0,0,1,8.914,8.914V101.6A8.923,8.923,0,0,1,116.319,110.517ZM9.416,18.453a2.971,2.971,0,0,0-2.971,2.971V101.6a2.971,2.971,0,0,0,2.971,2.971h106.9a2.974,2.974,0,0,0,2.971-2.971V21.424a2.974,2.974,0,0,0-2.971-2.971Z" transform="translate(-0.502 -12.51)" fill="#e6e9ed"/>
        <path id="Path_831" data-name="Path 831" d="M23.5,47.937a2.971,2.971,0,0,1-.036-5.943H23.5a2.971,2.971,0,0,1,0,5.943Z" transform="translate(38.95 45.613)" fill="#ccd1d9"/>
        <g id="Group_753" data-name="Group 753" transform="translate(145.578 80.214)">
          <path id="Path_832" data-name="Path 832" d="M76.238,45.449H52.467a2.971,2.971,0,1,1,0-5.943H76.238a2.971,2.971,0,1,1,0,5.943Z" transform="translate(-49.496 -39.506)" fill="#434a54"/>
          <path id="Path_833" data-name="Path 833" d="M76.238,48.449H52.467a2.971,2.971,0,1,1,0-5.943H76.238a2.971,2.971,0,1,1,0,5.943Z" transform="translate(-49.496 -33.592)" fill="#434a54"/>
          <path id="Path_834" data-name="Path 834" d="M76.238,51.449H52.467a2.971,2.971,0,1,1,0-5.943H76.238a2.971,2.971,0,0,1,0,5.943Z" transform="translate(-49.496 -27.678)" fill="#434a54"/>
        </g>
      </g>
      <g id="sound-recognition" transform="translate(360.311 2549.067)">
        <path id="Path_842" data-name="Path 842" d="M78.374,374.243H4.55a2.776,2.776,0,0,1-2.777-2.777V362.23a8.367,8.367,0,0,1,8.366-8.366H72.784a8.367,8.367,0,0,1,8.366,8.366v9.236a2.776,2.776,0,0,1-2.777,2.777Zm0,0" transform="translate(-1.288 -257.184)" fill="#e3f4ff"/>
        <path id="Path_843" data-name="Path 843" d="M255.161,362.226v9.235a2.777,2.777,0,0,1-2.778,2.777h-2.692V362.226a8.368,8.368,0,0,0-8.367-8.367h5.47A8.367,8.367,0,0,1,255.161,362.226Zm0,0" transform="translate(-175.298 -257.18)" fill="#bddff4"/>
        <path id="Path_844" data-name="Path 844" d="M126.641,333.128a7.606,7.606,0,0,1-7.606-7.606V315.77h15.212v9.752A7.6,7.6,0,0,1,126.641,333.128Zm0,0" transform="translate(-86.467 -229.512)" fill="#fecbaa"/>
        <path id="Path_845" data-name="Path 845" d="M66.338,54.341H23.76A17.049,17.049,0,0,1,6.712,37.292V30.914A30.414,30.414,0,0,1,37.125.5h15.85A30.415,30.415,0,0,1,83.389,30.914v6.377a17.051,17.051,0,0,1-17.051,17.05Zm0,0" transform="translate(-4.875 -0.5)" fill="#4e7693"/>
        <path id="Path_846" data-name="Path 846" d="M83.386,107.284v6.377a17.048,17.048,0,0,1-17.051,17.048H23.758A17.048,17.048,0,0,1,6.707,113.661v-6.377c0-.555.014-1.1.045-1.651a17.052,17.052,0,0,0,17.006,15.813H66.335a17.051,17.051,0,0,0,17-15.813C83.371,106.18,83.386,106.729,83.386,107.284Zm0,0" transform="translate(-4.872 -76.869)" fill="#2f5e75"/>
        <path id="Path_847" data-name="Path 847" d="M245.8,179.771a9.015,9.015,0,1,1-9.015-9.014A9.015,9.015,0,0,1,245.8,179.771Zm0,0" transform="translate(-165.455 -124.175)" fill="#fecbaa"/>
        <path id="Path_848" data-name="Path 848" d="M18.03,179.771a9.015,9.015,0,1,1-9.015-9.014A9.015,9.015,0,0,1,18.03,179.771Zm0,0" transform="translate(0 -124.175)" fill="#fecbaa"/>
        <path id="Path_849" data-name="Path 849" d="M97.139,130.175l2.381-42.08a6.442,6.442,0,0,0-6.432-6.806H48.807a6.443,6.443,0,0,0-6.432,6.806l2.382,42.08a19.68,19.68,0,0,0,19.649,18.567H77.489a19.68,19.68,0,0,0,19.65-18.567Zm0,0" transform="translate(-30.774 -59.185)" fill="#fedfc5"/>
        <path id="Path_850" data-name="Path 850" d="M93.071,200.3a2.082,2.082,0,0,1-.006-4.165h.049a2.082,2.082,0,0,1,.006,4.165h-.049Zm0,0" transform="translate(-66.094 -142.607)" fill="#2f5e75"/>
        <path id="Path_851" data-name="Path 851" d="M189.387,200.3a2.082,2.082,0,0,1-.006-4.165h.049a2.082,2.082,0,0,1,.006,4.165h-.049Zm0,0" transform="translate(-136.058 -142.607)" fill="#2f5e75"/>
        <path id="Path_852" data-name="Path 852" d="M30.429,84.011H57.338A13.867,13.867,0,0,0,71.2,70.144v-9.98H39.968A11.129,11.129,0,0,0,28.84,71.293V82.42a1.59,1.59,0,0,0,1.589,1.59Zm0,0" transform="translate(-20.949 -43.84)" fill="#4e7693"/>
        <path id="Path_853" data-name="Path 853" d="M192.035,84.011H180.672a13.867,13.867,0,0,1-13.867-13.867v-9.98H182.5a11.129,11.129,0,0,1,11.129,11.129V82.42A1.59,1.59,0,0,1,192.035,84.011Zm0,0" transform="translate(-121.167 -43.84)" fill="#4e7693"/>
        <path id="Path_854" data-name="Path 854" d="M87.88,90.179A2.083,2.083,0,0,0,85.8,92.262V102.9H74.926A11.8,11.8,0,0,1,63.142,91.113a2.082,2.082,0,0,0-4.165,0,15.85,15.85,0,0,0,1.894,7.529,11.814,11.814,0,0,1-9.06,4.255H25.4V92.262a2.082,2.082,0,1,0-4.165,0V103.39a3.677,3.677,0,0,0,3.672,3.672H51.81a15.99,15.99,0,0,0,11.562-4.973,15.9,15.9,0,0,0,11.554,4.973H86.289a3.676,3.676,0,0,0,3.672-3.672V92.262a2.083,2.083,0,0,0-2.082-2.083Zm0,0" transform="translate(-15.422 -64.809)" fill="#618baa"/>
        <path id="Path_855" data-name="Path 855" d="M137.241,204.127h-3.265a2.6,2.6,0,0,1-2.568-2.968l1.633-11.265a2.6,2.6,0,0,1,5.136,0l1.633,11.265A2.6,2.6,0,0,1,137.241,204.127Zm0,0" transform="translate(-95.435 -136.461)" fill="#fd8289"/>
        <path id="Path_856" data-name="Path 856" d="M188.807,166.658a2.068,2.068,0,0,1-1.139-.341,9.725,9.725,0,0,0-7.088-1.054,2.083,2.083,0,1,1-1.126-4.01,13.843,13.843,0,0,1,10.5,1.58,2.083,2.083,0,0,1-1.142,3.825Zm0,0" transform="translate(-129.251 -116.974)" fill="#4e7693"/>
        <path id="Path_857" data-name="Path 857" d="M70.462,166.657a2.083,2.083,0,0,1-1.143-3.825,13.838,13.838,0,0,1,10.5-1.58,2.082,2.082,0,0,1-1.117,4.012,9.725,9.725,0,0,0-7.1,1.052A2.073,2.073,0,0,1,70.462,166.657Zm0,0" transform="translate(-49.669 -116.973)" fill="#4e7693"/>
        <path id="Path_858" data-name="Path 858" d="M120.446,272.956a4.969,4.969,0,0,1-9.883.744,4.969,4.969,0,1,1,9.883-.744Zm0,0" transform="translate(-75.302 -195.078)" fill="#fd6069"/>
        <path id="Path_859" data-name="Path 859" d="M119.374,286.846a4.966,4.966,0,0,1-8.663-2.514,4.971,4.971,0,0,1,8.663,2.514Zm0,0" transform="translate(-75.45 -205.71)" fill="#f01014"/>
        <g id="Group_756" data-name="Group 756" transform="translate(69.024 62.363)">
          <path id="Path_860" data-name="Path 860" d="M254.365,291.156a2.083,2.083,0,0,1-2.083-2.082V284.7a2.083,2.083,0,0,1,4.166,0v4.374A2.083,2.083,0,0,1,254.365,291.156Zm0,0" transform="translate(-252.282 -267.793)" fill="#43a3f9"/>
          <path id="Path_861" data-name="Path 861" d="M274.74,285.643a2.084,2.084,0,0,1-2.083-2.083V272.52a2.082,2.082,0,0,1,4.165,0v11.04A2.083,2.083,0,0,1,274.74,285.643Zm0,0" transform="translate(-267.082 -258.946)" fill="#43a3f9"/>
          <path id="Path_862" data-name="Path 862" d="M295.115,273.71a2.083,2.083,0,0,1-2.083-2.083v-25.46a2.082,2.082,0,0,1,4.165,0v25.46A2.083,2.083,0,0,1,295.115,273.71Zm0,0" transform="translate(-281.883 -239.803)" fill="#43a3f9"/>
          <path id="Path_863" data-name="Path 863" d="M315.49,266.624a2.083,2.083,0,0,1-2.083-2.083V230.517a2.082,2.082,0,1,1,4.165,0v34.023A2.083,2.083,0,0,1,315.49,266.624Zm0,0" transform="translate(-296.683 -228.434)" fill="#43a3f9"/>
          <path id="Path_864" data-name="Path 864" d="M335.864,273.71a2.083,2.083,0,0,1-2.082-2.083v-25.46a2.082,2.082,0,0,1,4.165,0v25.46A2.083,2.083,0,0,1,335.864,273.71Zm0,0" transform="translate(-311.483 -239.803)" fill="#43a3f9"/>
          <path id="Path_865" data-name="Path 865" d="M356.238,285.643a2.083,2.083,0,0,1-2.082-2.083V272.52a2.082,2.082,0,0,1,4.165,0v11.04A2.083,2.083,0,0,1,356.238,285.643Zm0,0" transform="translate(-326.284 -258.946)" fill="#43a3f9"/>
          <path id="Path_866" data-name="Path 866" d="M376.611,291.156a2.083,2.083,0,0,1-2.083-2.082V284.7a2.083,2.083,0,0,1,4.166,0v4.374A2.083,2.083,0,0,1,376.611,291.156Zm0,0" transform="translate(-341.081 -267.793)" fill="#43a3f9"/>
          <path id="Path_867" data-name="Path 867" d="M396.986,285.643a2.084,2.084,0,0,1-2.083-2.083V272.52a2.083,2.083,0,0,1,4.166,0v11.04A2.084,2.084,0,0,1,396.986,285.643Zm0,0" transform="translate(-355.882 -258.946)" fill="#43a3f9"/>
          <path id="Path_868" data-name="Path 868" d="M417.361,273.71a2.084,2.084,0,0,1-2.083-2.083v-25.46a2.083,2.083,0,0,1,4.166,0v25.46A2.084,2.084,0,0,1,417.361,273.71Zm0,0" transform="translate(-370.682 -239.803)" fill="#43a3f9"/>
          <path id="Path_869" data-name="Path 869" d="M437.736,266.624a2.084,2.084,0,0,1-2.083-2.083V230.517a2.083,2.083,0,1,1,4.166,0v34.023A2.084,2.084,0,0,1,437.736,266.624Zm0,0" transform="translate(-385.482 -228.434)" fill="#43a3f9"/>
          <path id="Path_870" data-name="Path 870" d="M458.111,273.71a2.083,2.083,0,0,1-2.083-2.083v-25.46a2.082,2.082,0,0,1,4.165,0v25.46A2.083,2.083,0,0,1,458.111,273.71Zm0,0" transform="translate(-400.283 -239.803)" fill="#43a3f9"/>
          <path id="Path_871" data-name="Path 871" d="M478.486,285.643a2.083,2.083,0,0,1-2.083-2.083V272.52a2.082,2.082,0,0,1,4.165,0v11.04A2.083,2.083,0,0,1,478.486,285.643Zm0,0" transform="translate(-415.083 -258.946)" fill="#43a3f9"/>
          <path id="Path_872" data-name="Path 872" d="M498.86,291.156a2.082,2.082,0,0,1-2.082-2.082V284.7a2.082,2.082,0,1,1,4.165,0v4.374A2.082,2.082,0,0,1,498.86,291.156Zm0,0" transform="translate(-429.884 -267.793)" fill="#43a3f9"/>
        </g>
      </g>
      <g id="ear" transform="translate(609.281 2550.303)">
        <path id="Path_835" data-name="Path 835" d="M0,21.672a21.672,21.672,0,0,1,43.343,0,87.513,87.513,0,0,1-2.01,16.116A86.808,86.808,0,0,0,39.4,53.325,13.919,13.919,0,0,1,25.612,67.248a13.067,13.067,0,0,1-3.94-.591,13.981,13.981,0,0,1-9.851-13.331,12.854,12.854,0,0,1,.276-2.758C13.042,45.839,9.614,40.27,6.344,37A21.519,21.519,0,0,1,0,21.672Z" transform="translate(24.293)" fill="#fed2a4"/>
        <path id="Path_836" data-name="Path 836" d="M171.344,37c3.27,3.27,6.7,8.839,5.753,13.568a12.848,12.848,0,0,0-.276,2.758,13.981,13.981,0,0,0,9.851,13.331V0a21.677,21.677,0,0,0-15.328,37Z" transform="translate(-140.707)" fill="#ffbd86"/>
        <path id="Path_837" data-name="Path 837" d="M60.312,70.757a13.75,13.75,0,0,1,10.914-10.52A14.423,14.423,0,0,1,73.788,60,13.806,13.806,0,0,1,87.579,73.791c0,6.344-1.615,12.885-2.8,19.7a6.921,6.921,0,0,1-10.993,4.531,6.9,6.9,0,0,1-2.758-4.255l-.276-1.5A13.831,13.831,0,0,1,83.6,75.761c.039-.67.039-1.3.039-1.97a9.854,9.854,0,0,0-9.851-9.851,10.086,10.086,0,0,0-1.852.157,9.949,9.949,0,0,0-7.763,7.487,9.832,9.832,0,0,0,2.64,9.181l-2.8,2.8A14.013,14.013,0,0,1,60.312,70.757Z" transform="translate(-27.823 -52.119)" fill="#f6a96c"/>
        <g id="Group_754" data-name="Group 754" transform="translate(0 8.088)">
          <rect id="Rectangle_628" data-name="Rectangle 628" width="20.108" height="3.656" transform="translate(0 22.988)" fill="#ff9f00"/>
          <path id="Path_838" data-name="Path 838" d="M370.053,372.987l15.892-7.881-1.762-3.525-15.892,7.881Z" transform="translate(-366.682 -322.179)" fill="#ff9f00"/>
          <path id="Path_839" data-name="Path 839" d="M384.184,72.987l1.762-3.525-15.892-7.881-1.762,3.525Z" transform="translate(-366.682 -61.582)" fill="#ff9f00"/>
        </g>
        <g id="Group_755" data-name="Group 755" transform="translate(32.177 7.881)">
          <path id="Path_840" data-name="Path 840" d="M168.306,216.9a13.7,13.7,0,0,0-3.034,11.663l.276,1.5a6.9,6.9,0,0,0,2.758,4.255V216.9Z" transform="translate(-154.518 -196.291)" fill="#ea9b58"/>
          <path id="Path_841" data-name="Path 841" d="M169.016,83.563l2.8-2.8a9.831,9.831,0,0,1-2.64-9.181,9.949,9.949,0,0,1,7.763-7.487,10.1,10.1,0,0,1,1.852-.157V60a14.423,14.423,0,0,0-2.561.236,13.751,13.751,0,0,0-10.914,10.52A14.013,14.013,0,0,0,169.016,83.563Z" transform="translate(-165 -60)" fill="#ea9b58"/>
        </g>
      </g>
      <g id="browser" transform="translate(950.956 2549.067)">
        <path id="Path_878" data-name="Path 878" d="M98.388,21.537H0V8.331A3.192,3.192,0,0,1,3.192,5.139h92a3.192,3.192,0,0,1,3.192,3.192Z" transform="translate(0 -5.139)" fill="#3a556a"/>
        <path id="Path_879" data-name="Path 879" d="M95.2,148.009h-92A3.192,3.192,0,0,1,0,144.818V69.3H98.388v75.519A3.192,3.192,0,0,1,95.2,148.009Z" transform="translate(0 -52.901)" fill="#e1e6e9"/>
        <circle id="Ellipse_10" data-name="Ellipse 10" cx="4.1" cy="4.1" r="4.1" transform="translate(6.559 4.099)" fill="#fcd462"/>
        <circle id="Ellipse_11" data-name="Ellipse 11" cx="4.1" cy="4.1" r="4.1" transform="translate(19.678 4.099)" fill="#27a2db"/>
        <circle id="Ellipse_12" data-name="Ellipse 12" cx="4.1" cy="4.1" r="4.1" transform="translate(32.795 4.099)" fill="#44c4a1"/>
        <path id="Path_880" data-name="Path 880" d="M250.872,223.29l7.266-1.788v-9.153l-7.266-1.788a29.316,29.316,0,0,0-3.944-9.5l3.88-6.413-6.473-6.473-6.413,3.88a29.309,29.309,0,0,0-9.495-3.943l-1.788-7.267h-9.154l-1.788,7.267a29.316,29.316,0,0,0-9.5,3.944l-6.413-3.88-6.473,6.473,3.88,6.413a29.312,29.312,0,0,0-3.943,9.495l-7.266,1.788V221.5l7.266,1.788a29.314,29.314,0,0,0,3.944,9.5l-3.88,6.413,6.473,6.473,6.412-3.88a29.312,29.312,0,0,0,9.5,3.944L217.485,253h9.154l1.788-7.265a29.31,29.31,0,0,0,9.5-3.944l6.412,3.879,6.472-6.473-3.88-6.412A29.316,29.316,0,0,0,250.872,223.29Z" transform="translate(-138.452 -135.942)" fill="#27a2db"/>
        <circle id="Ellipse_13" data-name="Ellipse 13" cx="22.957" cy="22.957" r="22.957" transform="translate(60.654 58.025)" fill="#e1e6e9"/>
        <circle id="Ellipse_14" data-name="Ellipse 14" cx="13.118" cy="13.118" r="13.118" transform="translate(70.493 67.865)" fill="#1c75a1"/>
        <g id="Group_757" data-name="Group 757" transform="translate(13.006 29.842)">
          <path id="Path_881" data-name="Path 881" d="M55.585,134.838l-1.677,3.81H50.889L58.268,121.9h3.019l7.379,16.746H65.648l-1.678-3.81Zm7.235-2.61-3.043-6.9-3.043,6.9Z" transform="translate(-50.889 -121.901)" fill="#3a556a"/>
          <path id="Path_882" data-name="Path 882" d="M140.846,123.362a5.54,5.54,0,0,1,1.749,4.5,5.341,5.341,0,0,1-1.785,4.457q-1.785,1.413-5.475,1.414h-2.97v4.911h-2.827V121.9h5.75Q139.1,121.9,140.846,123.362Zm-2,6.912a3.694,3.694,0,0,0,.85-2.634,2.733,2.733,0,0,0-1.078-2.457,6.208,6.208,0,0,0-3.378-.717h-2.875v6.707h3.282A4.371,4.371,0,0,0,138.846,130.274Z" transform="translate(-109.437 -121.902)" fill="#3a556a"/>
          <path id="Path_883" data-name="Path 883" d="M193.656,121.9h2.827v16.746h-2.827Z" transform="translate(-157.168 -121.902)" fill="#3a556a"/>
        </g>
        <path id="Path_884" data-name="Path 884" d="M228.116,31.114h-37.8a3.192,3.192,0,0,1-3.192-3.192h0a3.192,3.192,0,0,1,3.192-3.192h37.795a3.192,3.192,0,0,1,3.192,3.192h0A3.192,3.192,0,0,1,228.116,31.114Z" transform="translate(-139.303 -19.724)" fill="#e1e6e9"/>
      </g>
      <g id="text-editor" transform="translate(1217.251 2549.067)">
        <path id="Path_885" data-name="Path 885" d="M82.557,25.737a1.714,1.714,0,1,1,0-3.428h38.082a1.714,1.714,0,1,1,0,3.428Zm43.183,5.1a1.714,1.714,0,1,1,3.429,0V68.927a1.714,1.714,0,0,1-3.429,0Zm0,51.718a1.714,1.714,0,1,1,3.429,0v38.082a1.714,1.714,0,1,1-3.429,0Zm-5.1,43.183a1.714,1.714,0,1,1,0,3.429H82.557a1.714,1.714,0,1,1,0-3.429Zm-51.712,0a1.714,1.714,0,0,1,0,3.429H30.839a1.714,1.714,0,1,1,0-3.429Zm-43.189-5.1a1.714,1.714,0,1,1-3.428,0v-89.8a1.714,1.714,0,1,1,3.428,0Zm5.1-94.9a1.714,1.714,0,1,1,0-3.428H68.927a1.714,1.714,0,0,1,0,3.428Z" transform="translate(-17.209 -17.209)" fill="#365e7d"/>
        <path id="Path_886" data-name="Path 886" d="M86.1,242.207a1.679,1.679,0,1,1,0-3.357h21.316a1.679,1.679,0,1,1,0,3.357Zm0,16.488a1.679,1.679,0,1,1,0-3.357h21.316a1.679,1.679,0,1,1,0,3.357Zm0,16.487a1.679,1.679,0,1,1,0-3.357h21.316a1.679,1.679,0,1,1,0,3.357Zm0-24.732a1.679,1.679,0,1,1,0-3.357h21.316a1.679,1.679,0,1,1,0,3.357Zm0,16.488a1.679,1.679,0,1,1,0-3.357h21.316a1.679,1.679,0,1,1,0,3.357Z" transform="translate(-65.095 -184.242)" fill="#ffe07d"/>
        <g id="Group_758" data-name="Group 758" transform="translate(0 0)">
          <path id="Path_887" data-name="Path 887" d="M1.374,103.431H12.256A1.379,1.379,0,0,1,13.63,104.8v10.888a1.373,1.373,0,0,1-1.374,1.368H1.374A1.373,1.373,0,0,1,0,115.692V104.8a1.379,1.379,0,0,1,1.374-1.374Zm0-51.712H12.256a1.373,1.373,0,0,1,1.374,1.368V63.974a1.379,1.379,0,0,1-1.374,1.374H1.374A1.379,1.379,0,0,1,0,63.974V53.087a1.373,1.373,0,0,1,1.374-1.368ZM1.374,0H12.256A1.375,1.375,0,0,1,13.63,1.375V12.257a1.375,1.375,0,0,1-1.374,1.374H1.374A1.375,1.375,0,0,1,0,12.257V1.375A1.375,1.375,0,0,1,1.374,0ZM53.086,0H63.974a1.379,1.379,0,0,1,1.374,1.374V12.257a1.379,1.379,0,0,1-1.374,1.374H53.086a1.373,1.373,0,0,1-1.367-1.374V1.375A1.373,1.373,0,0,1,53.086,0ZM104.8,0h10.888a1.374,1.374,0,0,1,1.368,1.374V12.257a1.374,1.374,0,0,1-1.368,1.374H104.8a1.379,1.379,0,0,1-1.374-1.374V1.375A1.379,1.379,0,0,1,104.8,0Zm0,51.718h10.888a1.372,1.372,0,0,1,1.368,1.368V63.974a1.378,1.378,0,0,1-1.368,1.374H104.8a1.383,1.383,0,0,1-1.374-1.374V53.087A1.378,1.378,0,0,1,104.8,51.719Zm0,51.712h10.888a1.378,1.378,0,0,1,1.368,1.374v10.888a1.372,1.372,0,0,1-1.368,1.368H104.8a1.377,1.377,0,0,1-1.374-1.368V104.8A1.383,1.383,0,0,1,104.8,103.431Zm-51.718,0H63.974a1.383,1.383,0,0,1,1.374,1.374v10.888a1.377,1.377,0,0,1-1.374,1.368H53.086a1.372,1.372,0,0,1-1.367-1.368V104.8A1.377,1.377,0,0,1,53.086,103.431Z" transform="translate(0 -0.001)" fill="#b3e59f" fill-rule="evenodd"/>
          <path id="Path_888" data-name="Path 888" d="M132.932,105.393h50.124a1.372,1.372,0,0,1,1.367,1.368v10.888a1.377,1.377,0,0,1-1.367,1.374H166.179a1.233,1.233,0,0,0-1.374,1.368v50.474a1.378,1.378,0,0,1-1.368,1.374H152.55a1.383,1.383,0,0,1-1.374-1.374V120.39c0-1.05-.434-1.368-1.367-1.368H132.932a1.383,1.383,0,0,1-1.374-1.374V106.761A1.378,1.378,0,0,1,132.932,105.393Z" transform="translate(-101.48 -81.297)" fill="#90d8f9" fill-rule="evenodd"/>
          <path id="Path_889" data-name="Path 889" d="M260.595,105.393h6.863a1.372,1.372,0,0,1,1.367,1.368v10.888a1.377,1.377,0,0,1-1.367,1.374h-6.863a1.379,1.379,0,0,0,1.374-1.374V106.761A1.373,1.373,0,0,0,260.595,105.393Zm-10.013,13.629a1.233,1.233,0,0,0-1.374,1.368v50.474a1.378,1.378,0,0,1-1.368,1.374h-6.863a1.379,1.379,0,0,0,1.374-1.374V120.39a1.23,1.23,0,0,1,1.374-1.368h6.857Z" transform="translate(-185.882 -81.297)" fill="#75cef9" fill-rule="evenodd"/>
          <path id="Path_890" data-name="Path 890" d="M247.509,206.194h36.41a1.379,1.379,0,0,1,1.374,1.374v7.35a1.379,1.379,0,0,1-1.374,1.374H272.13a1.209,1.209,0,0,0-1.367,1.367v30.96a1.383,1.383,0,0,1-1.374,1.374H262.04a1.379,1.379,0,0,1-1.374-1.374v-30.96a1.25,1.25,0,0,0-1.374-1.367H247.509a1.375,1.375,0,0,1-1.374-1.374v-7.35A1.375,1.375,0,0,1,247.509,206.194Z" transform="translate(-189.861 -159.052)" fill="#fc7070" fill-rule="evenodd"/>
          <path id="Path_891" data-name="Path 891" d="M332.383,206.194h6.857a1.379,1.379,0,0,1,1.374,1.374v7.35a1.379,1.379,0,0,1-1.374,1.374h-6.857a1.373,1.373,0,0,0,1.367-1.374v-7.35A1.373,1.373,0,0,0,332.383,206.194Zm-4.932,10.1a1.209,1.209,0,0,0-1.367,1.367v30.96a1.383,1.383,0,0,1-1.374,1.374h-6.857a1.377,1.377,0,0,0,1.367-1.374v-30.96a1.214,1.214,0,0,1,1.374-1.367Z" transform="translate(-245.182 -159.052)" fill="#d15a63" fill-rule="evenodd"/>
        </g>
      </g>
      <path id="Path_895" data-name="Path 895" d="M-416.62-400.954s11.934-89.114,134.9-89.114,134.08,89.114,134.08,89.114" transform="translate(846.972 2906.84)" fill="none" stroke="#407bff" stroke-linecap="round" stroke-width="7" stroke-dasharray="0 16"/>
      <path id="Path_896" data-name="Path 896" d="M-416.62-400.954s11.934-89.114,134.9-89.114,134.08,89.114,134.08,89.114" transform="translate(1427.419 2906.84)" fill="none" stroke="#407bff" stroke-linecap="round" stroke-width="7" stroke-dasharray="0 16"/>
      <path id="Path_897" data-name="Path 897" d="M0,89.114S11.934,0,134.9,0s134.08,89.114,134.08,89.114" transform="translate(1002.09 2855.866) rotate(-179)" fill="none" stroke="#407bff" stroke-linecap="round" stroke-width="7" stroke-dasharray="0 16"/>
      <path id="Polygon_5" data-name="Polygon 5" d="M11.788,0,23.576,21.218H0Z" transform="translate(991.857 2733.735)" fill="#407bff"/>
      <path id="Polygon_6" data-name="Polygon 6" d="M11.788,0,23.576,21.218H0Z" transform="translate(711.227 2533.742) rotate(180)" fill="#407bff"/>
      <path id="Polygon_7" data-name="Polygon 7" d="M11.788,0,23.576,21.218H0Z" transform="translate(1291.197 2533.742) rotate(180)" fill="#407bff"/>
    </g>
    <text id="Voice" transform="translate(363 2535)" fill="#707070" font-size="20" font-family="SegoeUI-Bold, Segoe UI" font-weight="700"><tspan x="-25.186" y="0">Voice</tspan></text>
    <text id="Microphone_Internet_Win_7-10" data-name="Microphone
Internet
Win 7-10" transform="translate(682 2535)" fill="#707070" font-size="20" font-family="SegoeUI-Bold, Segoe UI" font-weight="700"><tspan x="-57.061" y="0">Microphone</tspan><tspan x="-37.842" y="27">Internet</tspan><tspan x="-42.998" y="54">Win 7-10</tspan></text>
    <text id="Google_Speech_API" data-name="Google Speech API" transform="translate(950 2535)" fill="#707070" font-size="20" font-family="SegoeUI-Bold, Segoe UI" font-weight="700"><tspan x="-89.087" y="0">Google Speech API</tspan></text>
    <text id="Into_any_textbox" data-name="Into any textbox" transform="translate(1226 2535)" fill="#707070" font-size="20" font-family="SegoeUI-Bold, Segoe UI" font-weight="700"><tspan x="-77.827" y="0">Into any textbox</tspan></text>
  </g>
</svg>
