<svg xmlns="http://www.w3.org/2000/svg" width="246.771" height="309.003" viewBox="0 0 246.771 309.003">
  <g id="Group_48" data-name="Group 48" transform="translate(-69.5 175.079) rotate(-52)" opacity="0.35">
    <g id="Group_32" data-name="Group 32" transform="matrix(0.208, 0.978, -0.978, 0.208, 222.178, 0)">
      <g id="Group_31" data-name="Group 31" transform="translate(0 0)">
        <g id="Group_23" data-name="Group 23" transform="translate(0 146.562)">
          <path id="Path_54" data-name="Path 54" d="M6.934,3.465A3.467,3.467,0,1,1,3.465,0,3.469,3.469,0,0,1,6.934,3.465Z" transform="translate(0 0)" fill="#101011"/>
          <path id="Path_55" data-name="Path 55" d="M6.934,3.465A3.467,3.467,0,1,1,3.465,0,3.466,3.466,0,0,1,6.934,3.465Z" transform="translate(22.183 0)" fill="#101011"/>
          <path id="Path_56" data-name="Path 56" d="M6.934,3.465A3.467,3.467,0,1,1,3.465,0,3.466,3.466,0,0,1,6.934,3.465Z" transform="translate(44.366 0)" fill="#101011"/>
          <path id="Path_57" data-name="Path 57" d="M6.934,3.465A3.467,3.467,0,1,1,3.469,0,3.465,3.465,0,0,1,6.934,3.465Z" transform="translate(66.549 0)" fill="#101011"/>
          <path id="Path_58" data-name="Path 58" d="M6.93,3.465A3.465,3.465,0,1,1,3.465,0,3.465,3.465,0,0,1,6.93,3.465Z" transform="translate(88.735 0)" fill="#101011"/>
          <path id="Path_59" data-name="Path 59" d="M6.93,3.465A3.465,3.465,0,1,1,3.465,0,3.465,3.465,0,0,1,6.93,3.465Z" transform="translate(110.918 0)" fill="#101011"/>
          <path id="Path_60" data-name="Path 60" d="M6.934,3.465A3.467,3.467,0,1,1,3.465,0,3.466,3.466,0,0,1,6.934,3.465Z" transform="translate(133.101 0)" fill="#101011"/>
          <path id="Path_61" data-name="Path 61" d="M6.934,3.465A3.467,3.467,0,1,1,3.465,0,3.466,3.466,0,0,1,6.934,3.465Z" transform="translate(155.284 0)" fill="#101011"/>
        </g>
        <g id="Group_24" data-name="Group 24" transform="translate(0 125.622)">
          <path id="Path_62" data-name="Path 62" d="M6.934,3.469A3.467,3.467,0,1,1,3.465,0,3.469,3.469,0,0,1,6.934,3.469Z" transform="translate(0 0)" fill="#101011"/>
          <path id="Path_63" data-name="Path 63" d="M6.934,3.469A3.467,3.467,0,1,1,3.465,0,3.466,3.466,0,0,1,6.934,3.469Z" transform="translate(22.183 0)" fill="#101011"/>
          <path id="Path_64" data-name="Path 64" d="M6.934,3.469A3.467,3.467,0,1,1,3.465,0,3.466,3.466,0,0,1,6.934,3.469Z" transform="translate(44.366 0)" fill="#101011"/>
          <path id="Path_65" data-name="Path 65" d="M6.934,3.469A3.467,3.467,0,1,1,3.469,0,3.466,3.466,0,0,1,6.934,3.469Z" transform="translate(66.549 0)" fill="#101011"/>
          <path id="Path_66" data-name="Path 66" d="M6.93,3.469A3.465,3.465,0,1,1,3.465,0,3.466,3.466,0,0,1,6.93,3.469Z" transform="translate(88.735 0)" fill="#101011"/>
          <path id="Path_67" data-name="Path 67" d="M6.93,3.469A3.465,3.465,0,1,1,3.465,0,3.466,3.466,0,0,1,6.93,3.469Z" transform="translate(110.918 0)" fill="#101011"/>
          <path id="Path_68" data-name="Path 68" d="M6.934,3.469A3.467,3.467,0,1,1,3.465,0,3.466,3.466,0,0,1,6.934,3.469Z" transform="translate(133.101 0)" fill="#101011"/>
          <path id="Path_69" data-name="Path 69" d="M6.934,3.469A3.467,3.467,0,1,1,3.465,0,3.466,3.466,0,0,1,6.934,3.469Z" transform="translate(155.284 0)" fill="#101011"/>
        </g>
        <g id="Group_25" data-name="Group 25" transform="translate(0 104.685)">
          <path id="Path_70" data-name="Path 70" d="M6.934,3.469A3.467,3.467,0,1,1,3.465,0,3.469,3.469,0,0,1,6.934,3.469Z" transform="translate(0 0)" fill="#101011"/>
          <path id="Path_71" data-name="Path 71" d="M6.934,3.469A3.467,3.467,0,1,1,3.465,0,3.466,3.466,0,0,1,6.934,3.469Z" transform="translate(22.183 0)" fill="#101011"/>
          <path id="Path_72" data-name="Path 72" d="M6.934,3.469A3.467,3.467,0,1,1,3.465,0,3.466,3.466,0,0,1,6.934,3.469Z" transform="translate(44.366 0)" fill="#101011"/>
          <path id="Path_73" data-name="Path 73" d="M6.934,3.469A3.467,3.467,0,1,1,3.469,0,3.465,3.465,0,0,1,6.934,3.469Z" transform="translate(66.549 0)" fill="#101011"/>
          <path id="Path_74" data-name="Path 74" d="M6.93,3.469A3.465,3.465,0,1,1,3.465,0,3.465,3.465,0,0,1,6.93,3.469Z" transform="translate(88.735 0)" fill="#101011"/>
          <path id="Path_75" data-name="Path 75" d="M6.93,3.469A3.465,3.465,0,1,1,3.465,0,3.465,3.465,0,0,1,6.93,3.469Z" transform="translate(110.918 0)" fill="#101011"/>
          <path id="Path_76" data-name="Path 76" d="M6.934,3.469A3.467,3.467,0,1,1,3.465,0,3.466,3.466,0,0,1,6.934,3.469Z" transform="translate(133.101 0)" fill="#101011"/>
          <path id="Path_77" data-name="Path 77" d="M6.934,3.469A3.467,3.467,0,1,1,3.465,0,3.466,3.466,0,0,1,6.934,3.469Z" transform="translate(155.284 0)" fill="#101011"/>
        </g>
        <g id="Group_26" data-name="Group 26" transform="translate(0 83.749)">
          <path id="Path_78" data-name="Path 78" d="M6.934,3.465A3.467,3.467,0,1,1,3.465,0,3.469,3.469,0,0,1,6.934,3.465Z" transform="translate(0 0)" fill="#101011"/>
          <path id="Path_79" data-name="Path 79" d="M6.934,3.465A3.467,3.467,0,1,1,3.465,0,3.467,3.467,0,0,1,6.934,3.465Z" transform="translate(22.183 0)" fill="#101011"/>
          <path id="Path_80" data-name="Path 80" d="M6.934,3.465A3.467,3.467,0,1,1,3.465,0,3.467,3.467,0,0,1,6.934,3.465Z" transform="translate(44.366 0)" fill="#101011"/>
          <path id="Path_81" data-name="Path 81" d="M6.934,3.465A3.467,3.467,0,1,1,3.469,0,3.466,3.466,0,0,1,6.934,3.465Z" transform="translate(66.549 0)" fill="#101011"/>
          <path id="Path_82" data-name="Path 82" d="M6.93,3.465A3.465,3.465,0,1,1,3.465,0,3.466,3.466,0,0,1,6.93,3.465Z" transform="translate(88.735 0)" fill="#101011"/>
          <path id="Path_83" data-name="Path 83" d="M6.93,3.465A3.465,3.465,0,1,1,3.465,0,3.466,3.466,0,0,1,6.93,3.465Z" transform="translate(110.918 0)" fill="#101011"/>
          <path id="Path_84" data-name="Path 84" d="M6.934,3.465A3.467,3.467,0,1,1,3.465,0,3.467,3.467,0,0,1,6.934,3.465Z" transform="translate(133.101 0)" fill="#101011"/>
          <path id="Path_85" data-name="Path 85" d="M6.934,3.465A3.467,3.467,0,1,1,3.465,0,3.467,3.467,0,0,1,6.934,3.465Z" transform="translate(155.284 0)" fill="#101011"/>
        </g>
        <g id="Group_27" data-name="Group 27" transform="translate(0 62.813)">
          <path id="Path_86" data-name="Path 86" d="M6.934,3.465A3.467,3.467,0,1,1,3.465,0,3.469,3.469,0,0,1,6.934,3.465Z" transform="translate(0 0)" fill="#101011"/>
          <path id="Path_87" data-name="Path 87" d="M6.934,3.465A3.467,3.467,0,1,1,3.465,0,3.466,3.466,0,0,1,6.934,3.465Z" transform="translate(22.183 0)" fill="#101011"/>
          <path id="Path_88" data-name="Path 88" d="M6.934,3.465A3.467,3.467,0,1,1,3.465,0,3.466,3.466,0,0,1,6.934,3.465Z" transform="translate(44.366 0)" fill="#101011"/>
          <path id="Path_89" data-name="Path 89" d="M6.934,3.465A3.467,3.467,0,1,1,3.469,0,3.465,3.465,0,0,1,6.934,3.465Z" transform="translate(66.549 0)" fill="#101011"/>
          <path id="Path_90" data-name="Path 90" d="M6.93,3.465A3.465,3.465,0,1,1,3.465,0,3.465,3.465,0,0,1,6.93,3.465Z" transform="translate(88.735 0)" fill="#101011"/>
          <path id="Path_91" data-name="Path 91" d="M6.93,3.465A3.465,3.465,0,1,1,3.465,0,3.465,3.465,0,0,1,6.93,3.465Z" transform="translate(110.918 0)" fill="#101011"/>
          <path id="Path_92" data-name="Path 92" d="M6.934,3.465A3.467,3.467,0,1,1,3.465,0,3.466,3.466,0,0,1,6.934,3.465Z" transform="translate(133.101 0)" fill="#101011"/>
          <path id="Path_93" data-name="Path 93" d="M6.934,3.465A3.467,3.467,0,1,1,3.465,0,3.466,3.466,0,0,1,6.934,3.465Z" transform="translate(155.284 0)" fill="#101011"/>
        </g>
        <g id="Group_28" data-name="Group 28" transform="translate(0 41.876)">
          <path id="Path_94" data-name="Path 94" d="M6.934,3.465A3.467,3.467,0,1,1,3.465,0,3.469,3.469,0,0,1,6.934,3.465Z" transform="translate(0 0)" fill="#101011"/>
          <path id="Path_95" data-name="Path 95" d="M6.934,3.465A3.467,3.467,0,1,1,3.465,0,3.466,3.466,0,0,1,6.934,3.465Z" transform="translate(22.183 0)" fill="#101011"/>
          <path id="Path_96" data-name="Path 96" d="M6.934,3.465A3.467,3.467,0,1,1,3.465,0,3.466,3.466,0,0,1,6.934,3.465Z" transform="translate(44.366 0)" fill="#101011"/>
          <path id="Path_97" data-name="Path 97" d="M6.934,3.465A3.467,3.467,0,1,1,3.469,0,3.465,3.465,0,0,1,6.934,3.465Z" transform="translate(66.549 0)" fill="#101011"/>
          <path id="Path_98" data-name="Path 98" d="M6.93,3.465A3.465,3.465,0,1,1,3.465,0,3.465,3.465,0,0,1,6.93,3.465Z" transform="translate(88.735 0)" fill="#101011"/>
          <path id="Path_99" data-name="Path 99" d="M6.93,3.465A3.465,3.465,0,1,1,3.465,0,3.465,3.465,0,0,1,6.93,3.465Z" transform="translate(110.918 0)" fill="#101011"/>
          <path id="Path_100" data-name="Path 100" d="M6.934,3.465A3.467,3.467,0,1,1,3.465,0,3.466,3.466,0,0,1,6.934,3.465Z" transform="translate(133.101 0)" fill="#101011"/>
          <path id="Path_101" data-name="Path 101" d="M6.934,3.465A3.467,3.467,0,1,1,3.465,0,3.466,3.466,0,0,1,6.934,3.465Z" transform="translate(155.284 0)" fill="#101011"/>
        </g>
        <g id="Group_29" data-name="Group 29" transform="translate(0 20.936)">
          <path id="Path_102" data-name="Path 102" d="M6.934,3.469A3.467,3.467,0,1,1,3.465,0,3.469,3.469,0,0,1,6.934,3.469Z" transform="translate(0 0)" fill="#101011"/>
          <path id="Path_103" data-name="Path 103" d="M6.934,3.469A3.467,3.467,0,1,1,3.465,0,3.466,3.466,0,0,1,6.934,3.469Z" transform="translate(22.183 0)" fill="#101011"/>
          <path id="Path_104" data-name="Path 104" d="M6.934,3.469A3.467,3.467,0,1,1,3.465,0,3.466,3.466,0,0,1,6.934,3.469Z" transform="translate(44.366 0)" fill="#101011"/>
          <path id="Path_105" data-name="Path 105" d="M6.934,3.469A3.467,3.467,0,1,1,3.469,0,3.465,3.465,0,0,1,6.934,3.469Z" transform="translate(66.549 0)" fill="#101011"/>
          <path id="Path_106" data-name="Path 106" d="M6.93,3.469A3.465,3.465,0,1,1,3.465,0,3.465,3.465,0,0,1,6.93,3.469Z" transform="translate(88.735 0)" fill="#101011"/>
          <path id="Path_107" data-name="Path 107" d="M6.93,3.469A3.465,3.465,0,1,1,3.465,0,3.465,3.465,0,0,1,6.93,3.469Z" transform="translate(110.918 0)" fill="#101011"/>
          <path id="Path_108" data-name="Path 108" d="M6.934,3.469A3.467,3.467,0,1,1,3.465,0,3.466,3.466,0,0,1,6.934,3.469Z" transform="translate(133.101 0)" fill="#101011"/>
          <path id="Path_109" data-name="Path 109" d="M6.934,3.469A3.467,3.467,0,1,1,3.465,0,3.466,3.466,0,0,1,6.934,3.469Z" transform="translate(155.284 0)" fill="#101011"/>
        </g>
        <g id="Group_30" data-name="Group 30">
          <path id="Path_110" data-name="Path 110" d="M6.934,3.465A3.467,3.467,0,1,1,3.465,0,3.469,3.469,0,0,1,6.934,3.465Z" fill="#101011"/>
          <path id="Path_111" data-name="Path 111" d="M6.934,3.465A3.467,3.467,0,1,1,3.465,0,3.467,3.467,0,0,1,6.934,3.465Z" transform="translate(22.183 0)" fill="#101011"/>
          <path id="Path_112" data-name="Path 112" d="M6.934,3.465A3.467,3.467,0,1,1,3.465,0,3.467,3.467,0,0,1,6.934,3.465Z" transform="translate(44.366 0)" fill="#101011"/>
          <path id="Path_113" data-name="Path 113" d="M6.934,3.465A3.467,3.467,0,1,1,3.469,0,3.466,3.466,0,0,1,6.934,3.465Z" transform="translate(66.549 0)" fill="#101011"/>
          <path id="Path_114" data-name="Path 114" d="M6.93,3.465A3.465,3.465,0,1,1,3.465,0,3.466,3.466,0,0,1,6.93,3.465Z" transform="translate(88.735 0)" fill="#101011"/>
          <path id="Path_115" data-name="Path 115" d="M6.93,3.465A3.465,3.465,0,1,1,3.465,0,3.466,3.466,0,0,1,6.93,3.465Z" transform="translate(110.918 0)" fill="#101011"/>
          <path id="Path_116" data-name="Path 116" d="M6.934,3.465A3.467,3.467,0,1,1,3.465,0,3.467,3.467,0,0,1,6.934,3.465Z" transform="translate(133.101 0)" fill="#101011"/>
          <path id="Path_117" data-name="Path 117" d="M6.934,3.465A3.467,3.467,0,1,1,3.465,0,3.467,3.467,0,0,1,6.934,3.465Z" transform="translate(155.284 0)" fill="#101011"/>
        </g>
      </g>
      <rect id="Rectangle_9" data-name="Rectangle 9" width="154.019" height="154.019" rx="1.633" transform="translate(77.703 73.123)" fill="none" stroke="#08f" stroke-miterlimit="10" stroke-width="4.89"/>
    </g>
  </g>
</svg>
