<svg xmlns="http://www.w3.org/2000/svg" width="205.959" height="257.761" viewBox="0 0 205.959 257.761">
  <g id="Group_49" data-name="Group 49" transform="translate(-57.852 145.735) rotate(-52)" opacity="0.35">
    <g id="Group_32" data-name="Group 32" transform="matrix(0.208, 0.978, -0.978, 0.208, 184.94, 0)">
      <g id="Group_31" data-name="Group 31" transform="translate(0 0)">
        <g id="Group_23" data-name="Group 23" transform="translate(0 121.997)">
          <path id="Path_54" data-name="Path 54" d="M5.771,2.884A2.886,2.886,0,1,1,2.884,0,2.887,2.887,0,0,1,5.771,2.884Z" transform="translate(0 0)" fill="#101011"/>
          <path id="Path_55" data-name="Path 55" d="M5.771,2.884A2.886,2.886,0,1,1,2.884,0,2.885,2.885,0,0,1,5.771,2.884Z" transform="translate(18.465 0)" fill="#101011"/>
          <path id="Path_56" data-name="Path 56" d="M5.771,2.884A2.886,2.886,0,1,1,2.884,0,2.885,2.885,0,0,1,5.771,2.884Z" transform="translate(36.93 0)" fill="#101011"/>
          <path id="Path_57" data-name="Path 57" d="M5.771,2.884A2.886,2.886,0,1,1,2.887,0,2.885,2.885,0,0,1,5.771,2.884Z" transform="translate(55.395 0)" fill="#101011"/>
          <path id="Path_58" data-name="Path 58" d="M5.768,2.884A2.884,2.884,0,1,1,2.884,0,2.885,2.885,0,0,1,5.768,2.884Z" transform="translate(73.863 0)" fill="#101011"/>
          <path id="Path_59" data-name="Path 59" d="M5.768,2.884A2.884,2.884,0,1,1,2.884,0,2.885,2.885,0,0,1,5.768,2.884Z" transform="translate(92.328 0)" fill="#101011"/>
          <path id="Path_60" data-name="Path 60" d="M5.771,2.884A2.886,2.886,0,1,1,2.884,0,2.885,2.885,0,0,1,5.771,2.884Z" transform="translate(110.793 0)" fill="#101011"/>
          <path id="Path_61" data-name="Path 61" d="M5.771,2.884A2.886,2.886,0,1,1,2.884,0,2.885,2.885,0,0,1,5.771,2.884Z" transform="translate(129.258 0)" fill="#101011"/>
        </g>
        <g id="Group_24" data-name="Group 24" transform="translate(0 104.567)">
          <path id="Path_62" data-name="Path 62" d="M5.771,2.887A2.886,2.886,0,1,1,2.884,0,2.887,2.887,0,0,1,5.771,2.887Z" transform="translate(0 0)" fill="#101011"/>
          <path id="Path_63" data-name="Path 63" d="M5.771,2.887A2.886,2.886,0,1,1,2.884,0,2.885,2.885,0,0,1,5.771,2.887Z" transform="translate(18.465 0)" fill="#101011"/>
          <path id="Path_64" data-name="Path 64" d="M5.771,2.887A2.886,2.886,0,1,1,2.884,0,2.885,2.885,0,0,1,5.771,2.887Z" transform="translate(36.93 0)" fill="#101011"/>
          <path id="Path_65" data-name="Path 65" d="M5.771,2.887A2.886,2.886,0,1,1,2.887,0,2.885,2.885,0,0,1,5.771,2.887Z" transform="translate(55.395 0)" fill="#101011"/>
          <path id="Path_66" data-name="Path 66" d="M5.768,2.887A2.884,2.884,0,1,1,2.884,0,2.885,2.885,0,0,1,5.768,2.887Z" transform="translate(73.863 0)" fill="#101011"/>
          <path id="Path_67" data-name="Path 67" d="M5.768,2.887A2.884,2.884,0,1,1,2.884,0,2.885,2.885,0,0,1,5.768,2.887Z" transform="translate(92.328 0)" fill="#101011"/>
          <path id="Path_68" data-name="Path 68" d="M5.771,2.887A2.886,2.886,0,1,1,2.884,0,2.885,2.885,0,0,1,5.771,2.887Z" transform="translate(110.793 0)" fill="#101011"/>
          <path id="Path_69" data-name="Path 69" d="M5.771,2.887A2.886,2.886,0,1,1,2.884,0,2.885,2.885,0,0,1,5.771,2.887Z" transform="translate(129.258 0)" fill="#101011"/>
        </g>
        <g id="Group_25" data-name="Group 25" transform="translate(0 87.139)">
          <path id="Path_70" data-name="Path 70" d="M5.771,2.887A2.886,2.886,0,1,1,2.884,0,2.887,2.887,0,0,1,5.771,2.887Z" transform="translate(0 0)" fill="#101011"/>
          <path id="Path_71" data-name="Path 71" d="M5.771,2.887A2.886,2.886,0,1,1,2.884,0,2.885,2.885,0,0,1,5.771,2.887Z" transform="translate(18.465 0)" fill="#101011"/>
          <path id="Path_72" data-name="Path 72" d="M5.771,2.887A2.886,2.886,0,1,1,2.884,0,2.885,2.885,0,0,1,5.771,2.887Z" transform="translate(36.93 0)" fill="#101011"/>
          <path id="Path_73" data-name="Path 73" d="M5.771,2.887A2.886,2.886,0,1,1,2.887,0,2.885,2.885,0,0,1,5.771,2.887Z" transform="translate(55.395 0)" fill="#101011"/>
          <path id="Path_74" data-name="Path 74" d="M5.768,2.887A2.884,2.884,0,1,1,2.884,0,2.885,2.885,0,0,1,5.768,2.887Z" transform="translate(73.863 0)" fill="#101011"/>
          <path id="Path_75" data-name="Path 75" d="M5.768,2.887A2.884,2.884,0,1,1,2.884,0,2.885,2.885,0,0,1,5.768,2.887Z" transform="translate(92.328 0)" fill="#101011"/>
          <path id="Path_76" data-name="Path 76" d="M5.771,2.887A2.886,2.886,0,1,1,2.884,0,2.885,2.885,0,0,1,5.771,2.887Z" transform="translate(110.793 0)" fill="#101011"/>
          <path id="Path_77" data-name="Path 77" d="M5.771,2.887A2.886,2.886,0,1,1,2.884,0,2.885,2.885,0,0,1,5.771,2.887Z" transform="translate(129.258 0)" fill="#101011"/>
        </g>
        <g id="Group_26" data-name="Group 26" transform="translate(0 69.712)">
          <path id="Path_78" data-name="Path 78" d="M5.771,2.884A2.886,2.886,0,1,1,2.884,0,2.888,2.888,0,0,1,5.771,2.884Z" transform="translate(0 0)" fill="#101011"/>
          <path id="Path_79" data-name="Path 79" d="M5.771,2.884A2.886,2.886,0,1,1,2.884,0,2.886,2.886,0,0,1,5.771,2.884Z" transform="translate(18.465 0)" fill="#101011"/>
          <path id="Path_80" data-name="Path 80" d="M5.771,2.884A2.886,2.886,0,1,1,2.884,0,2.886,2.886,0,0,1,5.771,2.884Z" transform="translate(36.93 0)" fill="#101011"/>
          <path id="Path_81" data-name="Path 81" d="M5.771,2.884A2.886,2.886,0,1,1,2.887,0,2.885,2.885,0,0,1,5.771,2.884Z" transform="translate(55.395 0)" fill="#101011"/>
          <path id="Path_82" data-name="Path 82" d="M5.768,2.884A2.884,2.884,0,1,1,2.884,0,2.885,2.885,0,0,1,5.768,2.884Z" transform="translate(73.863 0)" fill="#101011"/>
          <path id="Path_83" data-name="Path 83" d="M5.768,2.884A2.884,2.884,0,1,1,2.884,0,2.885,2.885,0,0,1,5.768,2.884Z" transform="translate(92.328 0)" fill="#101011"/>
          <path id="Path_84" data-name="Path 84" d="M5.771,2.884A2.886,2.886,0,1,1,2.884,0,2.886,2.886,0,0,1,5.771,2.884Z" transform="translate(110.793 0)" fill="#101011"/>
          <path id="Path_85" data-name="Path 85" d="M5.771,2.884A2.886,2.886,0,1,1,2.884,0,2.886,2.886,0,0,1,5.771,2.884Z" transform="translate(129.258 0)" fill="#101011"/>
        </g>
        <g id="Group_27" data-name="Group 27" transform="translate(0 52.285)">
          <path id="Path_86" data-name="Path 86" d="M5.771,2.884A2.886,2.886,0,1,1,2.884,0,2.887,2.887,0,0,1,5.771,2.884Z" transform="translate(0 0)" fill="#101011"/>
          <path id="Path_87" data-name="Path 87" d="M5.771,2.884A2.886,2.886,0,1,1,2.884,0,2.885,2.885,0,0,1,5.771,2.884Z" transform="translate(18.465 0)" fill="#101011"/>
          <path id="Path_88" data-name="Path 88" d="M5.771,2.884A2.886,2.886,0,1,1,2.884,0,2.885,2.885,0,0,1,5.771,2.884Z" transform="translate(36.93 0)" fill="#101011"/>
          <path id="Path_89" data-name="Path 89" d="M5.771,2.884A2.886,2.886,0,1,1,2.887,0,2.885,2.885,0,0,1,5.771,2.884Z" transform="translate(55.395 0)" fill="#101011"/>
          <path id="Path_90" data-name="Path 90" d="M5.768,2.884A2.884,2.884,0,1,1,2.884,0,2.885,2.885,0,0,1,5.768,2.884Z" transform="translate(73.863 0)" fill="#101011"/>
          <path id="Path_91" data-name="Path 91" d="M5.768,2.884A2.884,2.884,0,1,1,2.884,0,2.885,2.885,0,0,1,5.768,2.884Z" transform="translate(92.328 0)" fill="#101011"/>
          <path id="Path_92" data-name="Path 92" d="M5.771,2.884A2.886,2.886,0,1,1,2.884,0,2.885,2.885,0,0,1,5.771,2.884Z" transform="translate(110.793 0)" fill="#101011"/>
          <path id="Path_93" data-name="Path 93" d="M5.771,2.884A2.886,2.886,0,1,1,2.884,0,2.885,2.885,0,0,1,5.771,2.884Z" transform="translate(129.258 0)" fill="#101011"/>
        </g>
        <g id="Group_28" data-name="Group 28" transform="translate(0 34.858)">
          <path id="Path_94" data-name="Path 94" d="M5.771,2.884A2.886,2.886,0,1,1,2.884,0,2.887,2.887,0,0,1,5.771,2.884Z" transform="translate(0 0)" fill="#101011"/>
          <path id="Path_95" data-name="Path 95" d="M5.771,2.884A2.886,2.886,0,1,1,2.884,0,2.885,2.885,0,0,1,5.771,2.884Z" transform="translate(18.465 0)" fill="#101011"/>
          <path id="Path_96" data-name="Path 96" d="M5.771,2.884A2.886,2.886,0,1,1,2.884,0,2.885,2.885,0,0,1,5.771,2.884Z" transform="translate(36.93 0)" fill="#101011"/>
          <path id="Path_97" data-name="Path 97" d="M5.771,2.884A2.886,2.886,0,1,1,2.887,0,2.885,2.885,0,0,1,5.771,2.884Z" transform="translate(55.395 0)" fill="#101011"/>
          <path id="Path_98" data-name="Path 98" d="M5.768,2.884A2.884,2.884,0,1,1,2.884,0,2.885,2.885,0,0,1,5.768,2.884Z" transform="translate(73.863 0)" fill="#101011"/>
          <path id="Path_99" data-name="Path 99" d="M5.768,2.884A2.884,2.884,0,1,1,2.884,0,2.885,2.885,0,0,1,5.768,2.884Z" transform="translate(92.328 0)" fill="#101011"/>
          <path id="Path_100" data-name="Path 100" d="M5.771,2.884A2.886,2.886,0,1,1,2.884,0,2.885,2.885,0,0,1,5.771,2.884Z" transform="translate(110.793 0)" fill="#101011"/>
          <path id="Path_101" data-name="Path 101" d="M5.771,2.884A2.886,2.886,0,1,1,2.884,0,2.885,2.885,0,0,1,5.771,2.884Z" transform="translate(129.258 0)" fill="#101011"/>
        </g>
        <g id="Group_29" data-name="Group 29" transform="translate(0 17.427)">
          <path id="Path_102" data-name="Path 102" d="M5.771,2.887A2.886,2.886,0,1,1,2.884,0,2.887,2.887,0,0,1,5.771,2.887Z" transform="translate(0 0)" fill="#101011"/>
          <path id="Path_103" data-name="Path 103" d="M5.771,2.887A2.886,2.886,0,1,1,2.884,0,2.885,2.885,0,0,1,5.771,2.887Z" transform="translate(18.465 0)" fill="#101011"/>
          <path id="Path_104" data-name="Path 104" d="M5.771,2.887A2.886,2.886,0,1,1,2.884,0,2.885,2.885,0,0,1,5.771,2.887Z" transform="translate(36.93 0)" fill="#101011"/>
          <path id="Path_105" data-name="Path 105" d="M5.771,2.887A2.886,2.886,0,1,1,2.887,0,2.885,2.885,0,0,1,5.771,2.887Z" transform="translate(55.395 0)" fill="#101011"/>
          <path id="Path_106" data-name="Path 106" d="M5.768,2.887A2.884,2.884,0,1,1,2.884,0,2.885,2.885,0,0,1,5.768,2.887Z" transform="translate(73.863 0)" fill="#101011"/>
          <path id="Path_107" data-name="Path 107" d="M5.768,2.887A2.884,2.884,0,1,1,2.884,0,2.885,2.885,0,0,1,5.768,2.887Z" transform="translate(92.328 0)" fill="#101011"/>
          <path id="Path_108" data-name="Path 108" d="M5.771,2.887A2.886,2.886,0,1,1,2.884,0,2.885,2.885,0,0,1,5.771,2.887Z" transform="translate(110.793 0)" fill="#101011"/>
          <path id="Path_109" data-name="Path 109" d="M5.771,2.887A2.886,2.886,0,1,1,2.884,0,2.885,2.885,0,0,1,5.771,2.887Z" transform="translate(129.258 0)" fill="#101011"/>
        </g>
        <g id="Group_30" data-name="Group 30" transform="translate(0 0)">
          <path id="Path_110" data-name="Path 110" d="M5.771,2.884A2.886,2.886,0,1,1,2.884,0,2.888,2.888,0,0,1,5.771,2.884Z" fill="#101011"/>
          <path id="Path_111" data-name="Path 111" d="M5.771,2.884A2.886,2.886,0,1,1,2.884,0,2.886,2.886,0,0,1,5.771,2.884Z" transform="translate(18.465 0)" fill="#101011"/>
          <path id="Path_112" data-name="Path 112" d="M5.771,2.884A2.886,2.886,0,1,1,2.884,0,2.886,2.886,0,0,1,5.771,2.884Z" transform="translate(36.93 0)" fill="#101011"/>
          <path id="Path_113" data-name="Path 113" d="M5.771,2.884A2.886,2.886,0,1,1,2.887,0,2.885,2.885,0,0,1,5.771,2.884Z" transform="translate(55.395 0)" fill="#101011"/>
          <path id="Path_114" data-name="Path 114" d="M5.768,2.884A2.884,2.884,0,1,1,2.884,0,2.885,2.885,0,0,1,5.768,2.884Z" transform="translate(73.863 0)" fill="#101011"/>
          <path id="Path_115" data-name="Path 115" d="M5.768,2.884A2.884,2.884,0,1,1,2.884,0,2.885,2.885,0,0,1,5.768,2.884Z" transform="translate(92.328 0)" fill="#101011"/>
          <path id="Path_116" data-name="Path 116" d="M5.771,2.884A2.886,2.886,0,1,1,2.884,0,2.886,2.886,0,0,1,5.771,2.884Z" transform="translate(110.793 0)" fill="#101011"/>
          <path id="Path_117" data-name="Path 117" d="M5.771,2.884A2.886,2.886,0,1,1,2.884,0,2.886,2.886,0,0,1,5.771,2.884Z" transform="translate(129.258 0)" fill="#101011"/>
        </g>
      </g>
      <rect id="Rectangle_9" data-name="Rectangle 9" width="128.205" height="128.205" rx="1.633" transform="translate(64.679 60.867)" fill="none" stroke="#08f" stroke-miterlimit="10" stroke-width="4.89"/>
    </g>
  </g>
</svg>
