<?xml version="1.0" encoding="UTF-8"?>
<svg width="46" height="47" viewBox="0 0 46 47" xmlns="http://www.w3.org/2000/svg">
 <path d="m31.924 23.418h5.888v2.2776h-5.888v-2.2776zm-7.153 5.4195h13.041v2.2775h-13.041v-2.2775z" fill="#2C5981"/>
 <path d="m42.918 13.607h-14.076v-10.897c0-1.4966-1.1945-2.7097-2.668-2.7097h-23.506c-1.4735 0-2.668 1.2132-2.668 2.7097v20.872c0 1.4966 1.1945 2.7098 2.668 2.7098h3.082v5.6764c0.00746 0.4574 0.27716 0.8683 0.69 1.0512 0.13825 0.0598 0.28672 0.0916 0.437 0.0934 0.2977-0.0043 0.58214-0.1257 0.7935-0.3387l6.348-6.4823h2.783v10.897c0 1.4966 1.1945 2.7097 2.668 2.7097h12.19l6.2905 6.4824c0.2113 0.213 0.4958 0.3344 0.7935 0.3387 0.1458 0.0022 0.2905-0.0256 0.4255-0.0818 0.4211-0.1811 0.6965-0.5984 0.7015-1.0628v-5.6765h3.0245c1.4754 1e-4 2.6732-1.2113 2.6795-2.7097v-20.837c0.0061-0.7218-0.2703-1.4165-0.7685-1.9312-0.4982-0.5148-1.1774-0.8074-1.888-0.8136zm-34.972 15.593v-4.0413c0-0.6451-0.51488-1.168-1.15-1.168h-4.1285c-0.20161-0.0322-0.35438-0.202-0.368-0.4088v-20.872c0.02829-0.19328 0.1777-0.34503 0.368-0.37376h23.506c0.2324 0.00614 0.4194 0.19607 0.4255 0.43216v20.814c-0.0061 0.2361-0.1931 0.426-0.4255 0.4322h-12.65c-0.2993-0.0035-0.5866 0.1191-0.7935 0.3387l-4.784 4.8472zm35.408 7.989c0 0.1167-0.0464 0.2284-0.1287 0.3098s-0.1935 0.1255-0.3083 0.1224h-4.1515c-0.6351 0-1.15 0.5229-1.15 1.168v4.0529l-4.738-4.8822c-0.2114-0.213-0.4958-0.3344-0.7935-0.3387h-12.65c-0.1138 0.0032-0.2239-0.0413-0.3044-0.123-0.0805-0.0818-0.1243-0.1936-0.1211-0.3092v-10.897h7.176c1.4735 0 2.668-1.2132 2.668-2.7098v-7.697h14.064c0.2413 0 0.437 0.1987 0.437 0.4438v20.86z" fill="#2C5981"/>
 <path d="m15.318 17.8c0-0.7612-0.6075-1.3783-1.357-1.3783-0.7494 0-1.357 0.6171-1.357 1.3783 0 0.7611 0.6076 1.3782 1.357 1.3782 0.7495 0 1.357-0.6171 1.357-1.3782zm-1.334-8.4563c0.384-0.03223 0.7625 0.10875 1.035 0.38547 0.2724 0.27673 0.4112 0.66113 0.3795 1.0511 0 0.7242-0.506 1.168-1.15 1.752-0.8127 0.5111-1.3506 1.3716-1.4605 2.336v0.584h2.3v-0.4906c0-0.7007 0.4715-1.1679 1.15-1.6585 0.8927-0.5461 1.4546-1.512 1.495-2.5696 0-2.1491-1.4605-3.504-3.8065-3.504-0.9758-0.09119-1.9448 0.23501-2.6739 0.90007-0.729 0.66507-1.152 1.6088-1.1671 2.6039l2.3 0.1518c-0.0308-0.4324 0.1308-0.8561 0.4403-1.1547 0.3096-0.29857 0.7346-0.44057 1.1582-0.38699z" fill="#2C5981"/>
</svg>
