<?xml version="1.0" encoding="UTF-8"?>
<svg width="48" height="48" fill="none" viewBox="0 0 48 48" xmlns="http://www.w3.org/2000/svg">
 <path d="m4.5 43.5c-0.79565 0-1.5587-0.3161-2.1213-0.8787s-0.87868-1.3257-0.87868-2.1213v-32.77c0.00264-0.85584 0.34379-1.6759 0.94896-2.281s1.4252-0.94632 2.281-0.94896h38.556c0.8516 0.00264 1.6676 0.3421 2.2697 0.94427 0.6022 0.60217 0.9417 1.4181 0.9443 2.2697v32.556c-0.0026 0.8558-0.3438 1.6759-0.949 2.281-0.6051 0.6052-1.4252 0.9464-2.281 0.949h-38.77z" stroke="#2C5981" stroke-linecap="round" stroke-linejoin="round" stroke-width="2"/>
 <path d="m46.5 13.5h-45" stroke="#2C5981" stroke-linecap="round" stroke-linejoin="round" stroke-width="2"/>
 <path d="m25.5 28.5h9" stroke="#2C5981" stroke-linecap="round" stroke-linejoin="round" stroke-width="2"/>
 <path d="m13.5 22.5 6 6-6 6" stroke="#2C5981" stroke-linecap="round" stroke-linejoin="round" stroke-width="2"/>
</svg>
