<?xml version="1.0" encoding="UTF-8"?>
<svg width="48" height="48" fill="none" viewBox="0 0 48 48" xmlns="http://www.w3.org/2000/svg">
 <path d="m25.498 42h3v4.5l6-4.5h9c0.7957 0 1.5588-0.3161 2.1214-0.8787s0.8786-1.3257 0.8786-2.1213v-9c0-0.7956-0.316-1.5587-0.8786-2.1213s-1.3257-0.8787-2.1214-0.8787h-18c-0.7956 0-1.5587 0.3161-2.1213 0.8787s-0.8787 1.3257-0.8787 2.1213v9c0 0.7956 0.3161 1.5587 0.8787 2.1213s1.3257 0.8787 2.1213 0.8787z" stroke="#2C5981" stroke-linecap="round" stroke-linejoin="round" stroke-width="2"/>
 <path d="m9.9458 39c2.8995 0 5.25-2.3505 5.25-5.25s-2.3505-5.25-5.25-5.25c-2.8995 0-5.25 2.3505-5.25 5.25s2.3505 5.25 5.25 5.25z" stroke="#2C5981" stroke-linecap="round" stroke-linejoin="round" stroke-width="2"/>
 <path d="m18.4 46.5c-0.6115-1.7534-1.7533-3.2731-3.2672-4.3485s-3.3249-1.6531-5.1818-1.6531c-1.857 0-3.6679 0.5777-5.1818 1.6531s-2.6557 2.5951-3.2672 4.3485" stroke="#2C5981" stroke-linecap="round" stroke-linejoin="round" stroke-width="2"/>
 <path d="m38.048 13.5c2.8994 0 5.25-2.3505 5.25-5.25 0-2.8995-2.3506-5.25-5.25-5.25-2.8995 0-5.25 2.3505-5.25 5.25 0 2.8995 2.3505 5.25 5.25 5.25z" stroke="#2C5981" stroke-linecap="round" stroke-linejoin="round" stroke-width="2"/>
 <path d="m46.498 21c-0.6115-1.7534-1.7533-3.2731-3.2672-4.3485s-3.3248-1.6531-5.1818-1.6531-3.6679 0.5777-5.1818 1.6531-2.6557 2.5951-3.2672 4.3485" stroke="#2C5981" stroke-linecap="round" stroke-linejoin="round" stroke-width="2"/>
 <path d="m32.998 31.5h7.5" stroke="#2C5981" stroke-linecap="round" stroke-linejoin="round" stroke-width="2"/>
 <path d="m28.498 36h12" stroke="#2C5981" stroke-linecap="round" stroke-linejoin="round" stroke-width="2"/>
 <path d="m22.498 16.5h-3v4.5l-6-4.5h-9c-0.79565 0-1.5587-0.3161-2.1213-0.8787s-0.87868-1.3257-0.87868-2.1213v-9c0-0.79565 0.31607-1.5587 0.87868-2.1213s1.3257-0.87868 2.1213-0.87868h18c0.7957 0 1.5588 0.31607 2.1214 0.87868s0.8786 1.3257 0.8786 2.1213v9c0 0.7956-0.316 1.5587-0.8786 2.1213s-1.3257 0.8787-2.1214 0.8787z" stroke="#2C5981" stroke-linecap="round" stroke-linejoin="round" stroke-width="2"/>
 <path d="m14.998 6h-7.5" stroke="#2C5981" stroke-linecap="round" stroke-linejoin="round" stroke-width="2"/>
 <path d="m19.498 10.5h-12" stroke="#2C5981" stroke-linecap="round" stroke-linejoin="round" stroke-width="2"/>
</svg>
